<svg width="358" height="31" viewBox="0 0 358 31" fill="none" xmlns="http://www.w3.org/2000/svg">
<mask id="mask0_596_8067" style="mask-type:alpha" maskUnits="userSpaceOnUse" x="0" y="0" width="358" height="31">
<rect width="358" height="31" fill="#D9D9D9"/>
</mask>
<g mask="url(#mask0_596_8067)">
<path d="M31.0043 -14.4668L45.4709 -0.0001297L31.0043 14.4665L16.5376 -0.0001297L31.0043 -14.4668Z" fill="#141414"/>
<path d="M105.403 -14.4668L119.869 -0.0001297L105.403 14.4665L90.936 -0.0001297L105.403 -14.4668Z" fill="#141414"/>
<path d="M179.801 -14.4668L194.268 -0.0001297L179.801 14.4665L165.334 -0.0001297L179.801 -14.4668Z" fill="#141414"/>
<path d="M254.2 -14.4668L268.666 -0.0001297L254.2 14.4665L239.733 -0.0001297L254.2 -14.4668Z" fill="#141414"/>
<path d="M328.598 -14.4668L343.065 -0.0001297L328.598 14.4665L314.131 -0.0001297L328.598 -14.4668Z" fill="#141414"/>
<path d="M68.1991 -10.333L78.5324 0.000325203L68.1991 10.3337L57.8657 0.000325203L68.1991 -10.333Z" fill="#141414"/>
<path d="M142.597 -10.333L152.931 0.000325203L142.597 10.3337L132.264 0.000325203L142.597 -10.333Z" fill="#141414"/>
<path d="M217 -10.333L227.333 0.000325203L217 10.3337L206.667 0.000325203L217 -10.333Z" fill="#141414"/>
<path d="M291.402 -10.333L301.736 0.000325203L291.402 10.3337L281.069 0.000325203L291.402 -10.333Z" fill="#141414"/>
<path d="M41.3319 10.3335L51.6652 20.6668H30.9985L41.3319 10.3335Z" fill="#141414"/>
<path d="M115.734 10.3335L126.068 20.6668H105.401L115.734 10.3335Z" fill="#141414"/>
<path d="M190.137 10.3335L200.47 20.6668H179.803L190.137 10.3335Z" fill="#141414"/>
<path d="M264.535 10.3335L274.868 20.6668H254.202L264.535 10.3335Z" fill="#141414"/>
<path d="M338.933 10.3335L349.267 20.6668H328.6L338.933 10.3335Z" fill="#141414"/>
<path d="M20.6652 10.3335L10.3319 20.6668H30.9985L20.6652 10.3335Z" fill="#141414"/>
<path d="M95.0675 10.3335L84.7342 20.6668H105.401L95.0675 10.3335Z" fill="#141414"/>
<path d="M169.47 10.3335L159.137 20.6668H179.803L169.47 10.3335Z" fill="#141414"/>
<path d="M243.868 10.3335L233.535 20.6668H254.202L243.868 10.3335Z" fill="#141414"/>
<path d="M318.267 10.3335L307.933 20.6668H328.6L318.267 10.3335Z" fill="#141414"/>
<path d="M31.0011 20.667L20.6678 31.0003H41.3345L31.0011 20.667Z" fill="#141414"/>
<path d="M105.4 20.667L95.0662 31.0003H115.733L105.4 20.667Z" fill="#141414"/>
<path d="M179.798 20.667L169.465 31.0003H190.131L179.798 20.667Z" fill="#141414"/>
<path d="M254.204 20.667L243.871 31.0003H264.538L254.204 20.667Z" fill="#141414"/>
<path d="M328.603 20.667L318.269 31.0003H338.936L328.603 20.667Z" fill="#141414"/>
<path d="M51.6678 0L62.0011 10.3333H41.3345L51.6678 0Z" fill="#141414"/>
<path d="M126.066 0L136.4 10.3333H115.733L126.066 0Z" fill="#141414"/>
<path d="M200.465 0L210.798 10.3333H190.131L200.465 0Z" fill="#141414"/>
<path d="M274.871 0L285.204 10.3333H264.538L274.871 0Z" fill="#141414"/>
<path d="M349.269 0L359.603 10.3333H338.936L349.269 0Z" fill="#141414"/>
<path d="M10.3332 0L-0.000162575 10.3333H20.6665L10.3332 0Z" fill="#141414"/>
<path d="M84.7355 0L74.4022 10.3333H95.0688L84.7355 0Z" fill="#141414"/>
<path d="M159.134 0L148.801 10.3333H169.467L159.134 0Z" fill="#141414"/>
<path d="M233.532 0L223.199 10.3333H243.866L233.532 0Z" fill="#141414"/>
<path d="M307.931 0L297.597 10.3333H318.264L307.931 0Z" fill="#141414"/>
</g>
</svg>
