<svg width="433" height="269" viewBox="0 0 433 269" fill="none" xmlns="http://www.w3.org/2000/svg">
<path d="M2 129.301C7.482 130.948 24.4524 132.313 48.4778 124.595C72.5033 116.877 94.3996 109.614 102.344 106.947C91.0627 106.006 67.212 104.311 62.0637 105.064L51.8147 97.5344C66.3539 98.3972 96.2428 100.264 99.4843 100.829L102.344 99.8875L104.966 98.711C107.906 98.6325 113.928 98.9463 114.5 100.829C117.281 96.9854 120.793 86.6633 112.593 76.1215C114.897 76.2 120.221 78.3334 123.081 86.2397C123.399 82.6317 125.655 73.6273 132.138 66.474C133.25 64.8268 135.523 60.6854 135.713 57.297C136.269 58.0814 137.429 60.0736 137.62 61.7678C138.256 60.1991 140.242 56.2146 143.102 52.8262C145.962 49.4378 146.677 47.3357 146.677 46.7082C147.71 47.9632 149.871 51.8379 150.252 57.297C151.047 54.8655 152.159 48.4495 150.252 42.2374C153.192 35.4135 157.641 18.0949 151.921 3.4118C152.318 3.33337 153.685 3.55299 155.973 5.05895C156.291 4.74522 156.735 3.69421 155.973 2C161.216 3.01966 171.99 9.38863 173.134 26.7072C174.008 25.2954 175.66 21.6716 175.279 18.4715C176.471 23.4129 177.424 35.037 171.704 42.0021C174.167 39.7275 179.379 34.5194 180.523 31.8839C182.032 42.3943 178.091 67.5094 150.252 83.8867C151.603 83.573 155.115 83.1337 158.356 83.8867C150.411 86.2398 133.663 91.6047 130.231 94.2402C128.881 95.0245 125.369 97.4403 122.127 100.829C130.549 99.1816 149.585 94.5696 158.356 89.2987C167.127 84.0279 185.687 65.7681 193.87 57.297C192.043 61.1404 187.387 70.0977 183.383 75.1803C190.851 67.9643 210.459 53.0615 229.146 51.1791C247.832 49.2966 297.631 52.9047 320.195 54.944C312.567 58.1598 295.788 65.9093 289.686 71.1801C298.664 67.0231 321.243 59.7913 339.739 64.1209C362.859 69.533 366.196 71.1801 380.973 81.063C377.954 80.5924 371.058 80.2159 367.626 82.4749C386.296 81.8474 425.115 94.5696 431.026 150.478C416.725 143.184 385.883 128.501 376.921 128.124C371.042 120.908 357.758 105.911 351.656 103.652C354.914 108.594 361.238 120.077 360.475 126.477C355.947 123.497 337.928 116.924 302.08 114.477C287.541 114.163 257.509 113.724 253.695 114.477C269.903 120.202 303.749 132.407 309.469 135.419C300.571 136.909 281.82 140.031 278.007 140.596C294.612 138.399 333.733 140.69 357.377 167.421C364.607 173.695 380.306 186.81 385.263 189.069H359.284L369.056 192.598C372.79 192.52 381.593 192.645 386.932 193.775C383.516 193.775 375.777 194.057 372.154 195.187C382.244 196.285 404.379 205.305 412.197 232.6C420.015 259.896 415.454 266.092 412.197 265.779C407.35 267.347 395.703 268.791 387.885 262.014C386.058 252.523 380.64 232.224 373.584 226.953C376.286 233.934 380.735 249.684 376.921 256.837C344.188 240.13 276.768 204.128 268.95 193.775C259.177 180.833 258.701 182.951 249.167 163.656C249.961 167.97 252.456 179.327 256.079 190.245C253.06 185.618 235.724 172.786 190.533 158.479C186.084 156.675 176.089 151.231 171.704 143.89C171.783 147.184 172.18 154.196 173.134 155.891C170.433 149.459 164.363 135.842 161.693 132.83C163.282 137.537 165.507 148.361 161.693 154.008C162.09 146.557 160.358 129.819 150.252 122.477C153.192 126.634 157.594 137.819 151.683 149.302C153.669 139.679 149.585 118.3 117.36 109.77C117.837 109.614 117.932 109.959 114.5 112.594C111.068 115.23 113.07 114.477 114.5 113.771C113.308 117.692 108.637 126.571 99.4843 130.713C99.0076 136.36 94.0023 149.584 77.7946 157.302C57.5351 166.95 50.623 173.774 46.5711 185.069L39.1823 192.834C37.2755 187.186 38.1812 172.456 57.0584 158.714C62.0637 155.071 69.9292 153.067 88.5203 137.772C86.693 137.772 82.6569 138.101 81.1315 139.419C79.6061 140.737 75.4112 145.615 73.5044 147.89L62.0637 154.008C64.1294 150.635 68.5467 143.043 71.5976 140.596C61.0308 142.164 37.8952 149.49 27.9799 165.303C26.7087 168.832 24.5477 179.28 26.0731 192.834C27.9799 209.776 17.0159 229.777 3.66844 232.836C8.19705 230.091 16.9683 216.082 15.8242 182.01C14.6801 147.937 57.2967 134.242 78.748 131.654C84.1506 126.477 95.5754 115.653 98.0542 113.771C101.153 111.418 12.964 154.949 2 129.301Z" stroke="#1C1C1C" stroke-width="3" stroke-linejoin="round"/>
<path d="M23.4535 158.243C38.8984 139.418 67.3095 132.83 79.2269 131.889L72.3148 140.83C58.9673 142.477 44.4281 150.007 38.231 154.007C33.2734 157.208 29.4916 162.4 28.2204 164.596C27.1876 166.165 24.7082 170.099 25.8369 184.362C27.0287 199.422 25.1219 206.01 25.1219 206.481C19.5922 224.552 8.83477 231.894 4.8623 232.6C11.536 227.894 16.7797 196.363 15.8263 182.48C15.0636 171.373 20.5933 161.694 23.4535 158.243Z" fill="#1C1C1C"/>
<path d="M88.5208 137.772C94.6225 132.124 96.3068 125.536 96.3862 122.947L101.868 118.241C100.2 142.478 90.6659 152.125 69.9297 161.302C53.3406 168.644 47.4455 180.048 46.5716 184.833L39.1827 192.127C35.3692 171.421 58.9656 156.831 61.1108 156.361C63.2559 155.89 80.8936 144.831 88.5208 137.772Z" fill="#1C1C1C"/>
<path d="M109.495 115.183C108.923 105.771 103.537 101.535 100.915 100.594C106.397 97.0642 110.925 98.2408 114.024 100.594C116.503 102.476 117.122 107.967 117.122 110.477L114.024 115.183C109.972 122.948 110.449 122.007 100.2 130.242C92.0005 136.831 84.0715 138.949 81.1318 139.184L89.474 129.537C91.8575 128.831 98.5312 124.36 102.345 122.007C105.396 120.124 108.383 116.673 109.495 115.183Z" fill="#1C1C1C"/>
<path d="M95.9116 106.711L109.021 107.182L96.6267 114.711M109.736 110.476C98.5334 120.986 75.5567 143.231 73.2686 148.125" stroke="#1C1C1C" stroke-width="4" stroke-linejoin="round"/>
<path fill-rule="evenodd" clip-rule="evenodd" d="M359.59 169.93L384.55 189.071H360L368.581 192.836L381.928 193.307L371.918 195.424C379.386 195.66 395.632 200.523 405.048 216.837C410.299 225.936 413.045 230.515 414.498 235.474C416.277 241.543 416.119 248.181 416.25 264.369C411.086 266.487 397.564 268.746 388.602 262.722C386.854 252.604 381.404 231.332 373.586 227.191C376.049 233.936 380.069 249.31 376.446 256.839L333.067 233.544C329.015 223.19 320.482 200.272 318.766 191.424C317.05 182.577 311.218 175.972 308.517 173.776H307.325C309.868 178.718 315.191 190.53 316.144 198.248C317.097 205.966 322.738 218.72 325.44 224.132C322.659 220.288 316.43 209.731 313.761 198.248C310.424 183.894 302.32 170.011 291.594 164.364C280.869 158.716 232.246 135.656 218.183 132.362C205.789 128.362 180.047 120.362 176.234 120.362C185.431 129.909 202.872 147.856 209.27 153.914C210.317 154.785 211.306 155.605 212.224 156.363L211.509 155.893C211.169 155.669 210.388 154.973 209.27 153.914C195.914 142.804 173.22 123.428 170.037 118.714C166.62 118.008 159.502 116.644 158.358 116.832L164.555 121.303C168.289 124.911 176.472 133.115 179.332 137.068C182.908 142.01 199.354 160.128 204.359 162.717L195.778 159.893C190.694 154.167 180.095 142.01 178.379 139.186C176.234 135.656 155.498 115.655 152.876 115.185C150.778 114.808 145.487 114.087 143.104 113.773C149.777 118.401 165.175 130.95 173.374 144.127C175.996 147.5 183.67 155.187 193.395 158.952C189.343 157.932 179.285 153.54 171.467 144.127V150.951L161.933 133.068C163.284 137.774 165.175 148.363 161.933 153.069C161.695 144.99 159.216 127.75 151.207 123.42C153.194 126.558 156.213 135.703 152.399 147.186C152.955 137.46 146.631 116.173 116.885 108.831L115.217 102.714C125.545 103.89 147.203 106.384 151.207 106.949C154.385 105.929 161.933 103.278 166.7 100.831L160.503 105.302L176.234 102.714L182.193 104.596C175.042 105.268 160.265 106.867 158.358 107.89C172.341 111.028 202.261 117.914 210.079 120.362C218.58 120.597 237.108 120.926 243.21 120.362C248.771 119.891 261.276 119.091 266.806 119.656L275.863 122.715C269.984 122.087 255.318 121.114 243.686 122.244C232.055 123.373 219.931 123.028 215.323 122.715L241.303 130.715C244.242 131.578 258.416 132.456 291.594 129.068L298.03 131.186C293.342 131.186 282.68 131.421 277.532 132.362C270.937 133.309 255.842 135.035 248.215 134.37C275.489 144.528 300.825 157.195 318.766 172.6C327.064 171.15 345.108 168.48 355.471 168.53C329.015 145.636 305.18 142.48 293.263 142.48C283.729 142.48 274.195 141.225 270.62 140.598L280.392 139.421C297.076 137.931 336.737 142.104 361.907 170.717L359.59 169.93ZM116.648 103.89C157.961 106.008 263.375 128.079 354.519 199.424C357.856 200.915 367.533 204.836 379.545 208.601C386.219 210.876 401.14 218.014 407.432 228.367C402.586 223.426 390.223 212.79 379.545 209.778C368.867 206.766 360.319 203.503 357.379 202.248C360.478 204.444 366.77 209.26 367.151 210.954L353.804 201.307C345.144 195.424 327.013 183.188 323.772 181.306C328.857 188.443 339.026 205.966 339.026 218.955C337.755 211.425 331.923 192.789 318.767 178.482C286.272 156.991 200.355 112.69 116.648 107.419L116.171 103.89H116.648Z" fill="#1C1C1C"/>
<path fill-rule="evenodd" clip-rule="evenodd" d="M149.295 99.4131L130.227 104.59L115.211 102.707C125.508 101.202 147.626 94.0796 157.399 90.7068C166.551 87.6949 201.572 83.0201 217.939 81.0592C221.514 80.5102 231.906 77.2943 244.872 68.8233C257.838 60.3523 266.641 56.8227 269.422 56.1167C265.132 58.3129 255.407 63.5995 250.831 67.1761C246.255 70.7528 234.941 77.2943 229.856 80.118L247.732 79.4121C250.831 78.3924 259.507 74.5177 269.422 67.1761C279.337 59.8346 293.098 55.1755 298.739 53.7637L305.413 54.2343C292.256 55.3638 273.236 67.2546 265.37 73.0588L254.644 79.4121C258.776 79.8043 270.995 80.8712 286.821 82.0005C302.648 83.1298 311.053 81.5299 313.278 80.5888C324.401 75.569 349.078 66.1881 358.803 68.8235C368.527 71.4589 378.268 78.5495 381.922 81.7654C379.443 81.7654 376.281 82.0791 375.01 82.236C420.201 92.4012 431.022 132.592 430.784 151.416C411.144 138.804 386.371 130.788 376.44 128.356C370.529 119.697 358.564 109.218 353.321 105.061C359.422 115.791 360.63 123.807 360.471 126.474C343.882 113.673 283.008 113.139 254.644 114.473C244.713 115.022 224.041 116.026 220.799 115.65C216.747 115.179 202.208 110.473 197.918 107.178C194.485 104.543 191.403 103.727 190.291 103.649C195.439 107.038 198.474 112.277 199.348 114.473C183.903 100.166 159.544 98.4719 149.295 99.4131ZM249.878 88.8237C245.493 86.9413 240.265 87.255 238.199 87.6472C245.588 89.294 279.91 106.707 283.962 109.06C287.204 110.943 293.258 111.413 295.879 111.413C293.192 110.352 282.961 105.169 276.63 101.961L276.63 101.96L276.629 101.96C274.538 100.901 272.873 100.057 272.045 99.6481C271.322 99.2916 270.131 98.6926 268.652 97.9489L268.647 97.946L268.644 97.9449L268.644 97.9448L268.644 97.9445C263.289 95.2515 254.171 90.6665 249.878 88.8237ZM329.967 114.473C319.241 113.846 297.027 111.838 293.976 108.826C290.163 105.061 255.125 88.8248 249.882 86.9424C258.145 86.6286 277.34 86.5659 288.018 88.8248C301.365 91.6485 321.386 101.767 329.967 114.473ZM221.515 112.592C226.282 113.91 263.862 112.043 282.056 110.945C272.204 106.474 251.261 96.6852 246.303 93.2968C241.346 89.9084 234.068 88.2769 231.049 87.8848C211.409 89.0142 175.673 94.7871 160.26 97.5323C170.556 97.5323 183.618 102.552 188.862 105.062C186.383 102.238 182.426 98.8657 180.758 97.5323C186.859 97.9088 197.76 104.278 202.447 107.415C200.731 104.78 194.741 98.4736 191.96 95.6499C210.404 109.971 214.613 110.951 219.315 112.046C220.021 112.21 220.737 112.377 221.515 112.592ZM125.939 102.24C157.56 92.2785 237.057 74.9913 302.078 85.5331C304.859 85.7685 312.28 85.7688 319.716 83.8863C321.391 83.4624 323.421 82.8857 325.699 82.2388C336.064 79.2952 351.547 74.898 361.904 76.8271C354.674 77.2192 337.449 79.3212 326.39 84.592C323.689 85.4548 317.333 87.1804 313.519 87.1804C324.324 89.3766 347.174 93.8631 352.131 94.2396C358.329 94.7102 376.443 95.6514 379.541 95.6514C382.64 95.6514 397.418 97.2986 407.428 104.593C404.012 102.24 393.27 97.4398 377.635 97.0633C361.999 96.6868 353.959 96.122 351.893 95.8867C360.95 98.7104 382.831 106.993 397.894 117.535C404.489 118.633 418.869 122.523 423.636 129.3C421.57 127.339 414.197 122.571 401.231 119.182C405.045 121.143 413.721 126.665 417.915 133.065C410.686 127.026 391.316 113.017 371.676 105.299C377.391 111.618 389.024 124.386 391.65 126.916C391.762 127.018 391.856 127.104 391.933 127.173C392.225 127.439 392.248 127.46 391.936 127.183C391.857 127.113 391.762 127.024 391.65 126.916C388.921 124.431 375.977 112.582 370.008 105.299C363.413 101.22 342.455 92.216 311.374 88.8275C272.523 84.592 245.59 83.8857 230.097 85.5331C228.484 85.7046 226.688 85.8837 224.705 86.0815C207.648 87.7826 176.829 90.8561 130.706 102.24H125.939Z" fill="#1C1C1C"/>
<path d="M137.384 79.4172C133.571 84.8763 121.812 93.7709 116.41 97.5358L114.503 101.3L115.456 102.947L121.415 101.3C121.606 99.2296 129.598 94.0058 133.571 91.6527C145.965 75.6518 157.485 69.2986 161.696 68.122C163.205 67.2592 165.652 65.6748 163.364 66.2396C161.076 66.8043 154.625 70.2398 151.685 71.8869L155.022 67.6514C159.026 65.7923 171.627 56.6802 177.427 52.3565L178.38 48.8269C175.711 53.7213 162.808 61.0628 156.691 64.1218L159.312 60.1216C167.512 56.9214 176.394 47.8072 179.81 43.6501L180.049 41.0618C175.663 48.7798 165.35 55.2586 160.742 57.5332C160.345 58.2393 160.742 56.9688 165.509 46.2385C170.25 35.5672 166.897 23.7018 164.594 19.02C164.582 18.994 164.569 18.9683 164.556 18.943C164.569 18.9684 164.581 18.9941 164.594 19.02C166.077 22.086 165.825 29.7968 165.509 33.2967C165.128 26.8963 158.359 19.6489 155.022 16.8252L155.26 18.237C157.088 19.8842 161.267 24.6844 163.364 30.7083C165.462 36.7321 164.556 41.6893 163.841 43.4148C165.366 35.885 159.074 25.8453 155.737 21.7666C155.102 21.9235 154.069 22.3314 155.022 22.7079C156.214 23.1785 159.312 29.2964 161.219 33.7673C162.745 37.3439 162.331 46.7091 161.934 50.9447C160.981 52.9055 157.596 58.9921 151.685 67.6514C144.296 78.4755 129.042 92.3586 126.42 94.7117C124.323 96.5941 119.985 99.8884 118.078 101.3L116.886 100.594C121.177 96.6726 130.52 88.3584 133.571 86.476C137.384 84.1229 157.644 58.0039 158.597 56.1214C159.322 54.6909 160.247 51.4485 160.678 49.7827C160.705 49.6939 160.727 49.6106 160.742 49.5328C160.723 49.6114 160.701 49.6949 160.678 49.7827C159.404 53.9936 145.822 70.405 139.053 78.2402C139.434 77.1107 139.371 65.3771 139.291 59.6514C138.338 59.3377 136.622 59.5102 137.384 62.7104C138.147 65.9106 137.702 75.1816 137.384 79.4172Z" fill="#1C1C1C"/>
<path d="M116.41 97.5358C121.812 93.7709 133.571 84.8763 137.384 79.4172C137.702 75.1816 138.147 65.9106 137.384 62.7104C136.622 59.5102 138.338 59.3377 139.291 59.6514C139.371 65.3771 139.434 77.1107 139.053 78.2402C145.965 70.2398 159.98 53.2977 160.742 49.5328C160.345 51.1015 159.36 54.6154 158.597 56.1214C157.644 58.0039 137.384 84.1229 133.571 86.476C130.52 88.3584 121.177 96.6726 116.886 100.594L118.078 101.3C119.985 99.8884 124.323 96.5941 126.42 94.7117C129.042 92.3586 144.296 78.4755 151.685 67.6514C157.596 58.9921 160.981 52.9055 161.934 50.9447C162.331 46.7091 162.745 37.3439 161.219 33.7673C159.312 29.2964 156.214 23.1785 155.022 22.7079C154.069 22.3314 155.102 21.9235 155.737 21.7666C159.074 25.8453 165.366 35.885 163.841 43.4148C164.556 41.6893 165.462 36.7321 163.364 30.7083C161.267 24.6844 157.088 19.8842 155.26 18.237L155.022 16.8252C158.359 19.6489 165.128 26.8963 165.509 33.2967C165.827 29.7671 166.081 21.9549 164.556 18.943C166.86 23.5705 170.276 35.5082 165.509 46.2385C160.742 56.9688 160.345 58.2393 160.742 57.5332C165.35 55.2586 175.663 48.7798 180.049 41.0618L179.81 43.6501C176.394 47.8072 167.512 56.9214 159.312 60.1216L156.691 64.1218C162.808 61.0628 175.711 53.7213 178.38 48.8269L177.427 52.3565C171.627 56.6802 159.026 65.7923 155.022 67.6514L151.685 71.8869C154.625 70.2398 161.076 66.8043 163.364 66.2396C165.652 65.6748 163.205 67.2592 161.696 68.122C157.485 69.2986 145.965 75.6518 133.571 91.6527C129.598 94.0058 121.606 99.2296 121.415 101.3L115.456 102.947L114.503 101.3L116.41 97.5358Z" stroke="#1C1C1C"/>
</svg>
