<svg width="398" height="249" viewBox="0 0 398 249" fill="none" xmlns="http://www.w3.org/2000/svg">
<path d="M1 119.716C6.06 121.256 21.724 122.532 43.9 115.316C66.076 108.1 86.2867 101.309 93.62 98.8159C83.2067 97.9359 61.192 96.3519 56.44 97.0559L46.98 90.0158C60.4 90.8224 87.988 92.5678 90.98 93.0958L93.62 92.2158L96.04 91.1158C98.7533 91.0424 104.312 91.3358 104.84 93.0958C107.407 89.5024 110.648 79.8518 103.08 69.9958C105.207 70.0691 110.12 72.0638 112.76 79.4558C113.053 76.0824 115.136 67.6638 121.12 60.9758C122.147 59.4358 124.244 55.5638 124.42 52.3958C124.933 53.1291 126.004 54.9918 126.18 56.5758C126.767 55.1091 128.6 51.3838 131.24 48.2158C133.88 45.0478 134.54 43.0824 134.54 42.4958C135.493 43.6691 137.488 47.2918 137.84 52.3958C138.573 50.1224 139.6 44.1238 137.84 38.3158C140.553 31.9358 144.66 15.7438 139.38 2.01577C139.747 1.94243 141.008 2.14777 143.12 3.55577C143.413 3.26244 143.824 2.2798 143.12 0.695801C147.96 1.64913 157.904 7.6038 158.96 23.7958C159.767 22.4758 161.292 19.0878 160.94 16.0958C162.04 20.7158 162.92 31.5838 157.64 38.0958C159.913 35.9691 164.724 31.0998 165.78 28.6358C167.173 38.4625 163.536 61.9438 137.84 77.2558C139.087 76.9625 142.328 76.5518 145.32 77.2558C137.987 79.4558 122.528 84.4718 119.36 86.9358C118.113 87.6691 114.872 89.9277 111.88 93.0958C119.653 91.5558 137.224 87.2438 145.32 82.3158C153.416 77.3878 170.547 60.3158 178.1 52.3958C176.413 55.9891 172.116 64.3638 168.42 69.1158C175.313 62.3691 193.412 48.4358 210.66 46.6758C227.908 44.9158 273.873 48.2891 294.7 50.1958C287.66 53.2025 272.172 60.4478 266.54 65.3758C274.827 61.4891 295.668 54.7278 312.74 58.7758C334.08 63.8358 337.16 65.3758 350.8 74.6158C348.013 74.1758 341.648 73.8238 338.48 75.9358C355.713 75.3491 391.544 87.2438 397 139.516C383.8 132.696 355.332 118.968 347.06 118.616C341.633 111.869 329.372 97.8478 323.74 95.7358C326.747 100.356 332.584 111.092 331.88 117.076C327.7 114.289 311.068 108.144 277.98 105.856C264.56 105.562 236.84 105.152 233.32 105.856C248.28 111.209 279.52 122.62 284.8 125.436C276.587 126.829 259.28 129.748 255.76 130.276C271.087 128.222 307.196 130.364 329.02 155.356C335.693 161.222 350.184 173.484 354.76 175.596H330.78L339.8 178.896C343.247 178.822 351.372 178.94 356.3 179.996C353.147 179.996 346.004 180.26 342.66 181.316C351.973 182.342 372.404 190.776 379.62 216.296C386.836 241.816 382.627 247.609 379.62 247.316C375.147 248.782 364.396 250.132 357.18 243.796C355.493 234.922 350.492 215.944 343.98 211.016C346.473 217.542 350.58 232.268 347.06 238.956C316.847 223.336 254.616 189.676 247.4 179.996C238.38 167.896 237.94 169.876 229.14 151.836C229.873 155.869 232.176 166.488 235.52 176.696C232.733 172.369 216.732 160.372 175.02 146.996C170.913 145.309 161.688 140.22 157.64 133.356C157.713 136.436 158.08 142.992 158.96 144.576C156.467 138.562 150.864 125.832 148.4 123.016C149.867 127.416 151.92 137.536 148.4 142.816C148.767 135.849 147.168 120.2 137.84 113.336C140.553 117.222 144.616 127.68 139.16 138.416C140.993 129.419 137.224 109.431 107.48 101.456C107.92 101.309 108.008 101.632 104.84 104.096C101.672 106.56 103.52 105.856 104.84 105.196C103.74 108.862 99.428 117.164 90.98 121.036C90.54 126.316 85.92 138.68 70.96 145.896C52.26 154.916 45.88 161.296 42.14 171.856L35.32 179.116C33.56 173.836 34.396 160.064 51.82 147.216C56.44 143.809 63.7 141.936 80.86 127.636C79.1733 127.636 75.448 127.944 74.04 129.176C72.632 130.408 68.76 134.969 67 137.096L56.44 142.816C58.3467 139.662 62.424 132.564 65.24 130.276C55.4867 131.742 34.132 138.592 24.98 153.376C23.8067 156.676 21.812 166.444 23.22 179.116C24.98 194.956 14.86 213.656 2.54 216.516C6.72 213.949 14.816 200.852 13.76 168.996C12.704 137.14 52.04 124.336 71.84 121.916C76.8267 117.076 87.372 106.956 89.66 105.196C92.52 102.996 11.12 143.696 1 119.716Z" stroke="#3E3E3E" stroke-width="0.5" stroke-linejoin="round"/>
<path d="M20.8013 146.776C35.0573 129.176 61.2813 123.016 72.2813 122.136L65.9012 130.496C53.5812 132.036 40.1612 139.076 34.4412 142.816C29.8652 145.808 26.3746 150.662 25.2012 152.716C24.2479 154.182 21.9594 157.86 23.0012 171.196C24.1012 185.276 22.3412 191.436 22.3412 191.876C17.2372 208.772 7.3079 215.636 3.64124 216.296C9.80124 211.896 14.6413 182.416 13.7613 169.436C13.0573 159.052 18.1613 150.002 20.8013 146.776Z" fill="#3E3E3E"/>
<path d="M80.8597 127.636C86.4917 122.356 88.0463 116.196 88.1197 113.776L93.1797 109.376C91.6397 132.036 82.8397 141.056 63.6997 149.636C48.3877 156.5 42.9464 167.163 42.1397 171.636L35.3197 178.456C31.7997 159.096 53.5797 145.456 55.5597 145.016C57.5397 144.576 73.8197 134.236 80.8597 127.636Z" fill="#3E3E3E"/>
<path d="M100.22 106.517C99.6916 97.7167 94.7196 93.7567 92.2996 92.8767C97.3596 89.5767 101.54 90.6767 104.4 92.8767C106.688 94.6367 107.26 99.77 107.26 102.117L104.4 106.517C100.66 113.777 101.1 112.897 91.6396 120.597C84.0716 126.757 76.7529 128.737 74.0396 128.957L81.7396 119.937C83.9396 119.277 90.0996 115.097 93.6196 112.897C96.4356 111.137 99.1929 107.91 100.22 106.517Z" fill="#3E3E3E"/>
<path d="M87.6815 98.5957L99.7815 99.0357L88.3415 106.076M100.441 102.116C90.1015 111.942 68.8935 132.74 66.7815 137.316" stroke="#3E3E3E" stroke-width="4" stroke-linejoin="round"/>
<path fill-rule="evenodd" clip-rule="evenodd" d="M331.065 157.701L354.104 175.597H331.444L339.364 179.117L351.684 179.557L342.444 181.537C349.338 181.757 364.334 186.304 373.024 201.557C377.863 210.05 380.397 214.332 381.74 218.959C383.389 224.64 383.243 230.842 383.364 245.997C378.598 247.977 366.116 250.089 357.844 244.457C356.231 234.997 351.2 215.109 343.984 211.237C346.258 217.544 349.968 231.917 346.624 238.957L306.584 217.177C302.844 207.497 294.968 186.069 293.384 177.797C291.8 169.525 286.418 163.351 283.924 161.297H282.824C285.171 165.917 290.084 176.961 290.964 184.177C291.844 191.393 297.051 203.317 299.544 208.377C296.978 204.784 291.228 194.913 288.764 184.177C285.684 170.757 278.204 157.777 268.304 152.497C258.404 147.217 213.524 125.657 200.544 122.577C189.104 118.837 165.344 111.357 161.824 111.357C170.314 120.284 186.412 137.063 192.317 142.727C193.283 143.541 194.197 144.308 195.044 145.017L194.384 144.577C194.07 144.368 193.349 143.717 192.317 142.727C179.99 132.34 159.042 114.224 156.104 109.817C152.951 109.157 146.38 107.881 145.324 108.057L151.044 112.237C154.491 115.611 162.044 123.281 164.684 126.977C167.984 131.597 183.164 148.537 187.784 150.957L179.864 148.317C175.171 142.964 165.388 131.597 163.804 128.957C161.824 125.657 142.684 106.957 140.264 106.517C138.328 106.165 133.444 105.491 131.244 105.197C137.404 109.524 151.616 121.257 159.184 133.577C161.604 136.731 168.688 143.917 177.664 147.437C173.924 146.484 164.64 142.377 157.424 133.577V139.957L148.624 123.237C149.871 127.637 151.616 137.537 148.624 141.937C148.404 134.384 146.116 118.265 138.724 114.217C140.558 117.151 143.344 125.701 139.824 136.437C140.338 127.344 134.5 107.441 107.044 100.577L105.504 94.8572C115.038 95.9572 135.028 98.2892 138.724 98.8172C141.658 97.8638 148.624 95.3852 153.024 93.0972L147.304 97.2772L161.824 94.8572L167.324 96.6172C160.724 97.2451 147.084 98.7402 145.324 99.6972C158.231 102.631 185.848 109.069 193.064 111.357C200.911 111.577 218.012 111.885 223.644 111.357C228.778 110.917 240.32 110.169 245.424 110.697L253.784 113.557C248.358 112.971 234.82 112.061 224.084 113.117C213.348 114.173 202.158 113.851 197.904 113.557L221.884 121.037C224.598 121.844 237.68 122.665 268.304 119.497L274.244 121.477C269.918 121.477 260.076 121.697 255.324 122.577C249.238 123.462 235.304 125.077 228.264 124.455C253.439 133.952 276.825 145.795 293.384 160.197C301.043 158.842 317.698 156.346 327.264 156.392C302.844 134.988 280.844 132.037 269.844 132.037C261.044 132.037 252.244 130.864 248.944 130.277L257.964 129.177C273.364 127.784 309.972 131.685 333.204 158.437L331.065 157.701ZM106.824 95.9574C144.957 97.9374 242.256 118.573 326.384 185.277C329.464 186.671 338.396 190.337 349.484 193.857C355.644 195.984 369.416 202.657 375.224 212.337C370.75 207.717 359.34 197.773 349.484 194.957C339.628 192.141 331.737 189.091 329.024 187.917C331.884 189.971 337.692 194.473 338.044 196.057L325.724 187.037C317.73 181.537 300.996 170.097 298.004 168.337C302.697 175.011 312.084 191.393 312.084 203.537C310.91 196.497 305.528 179.073 293.384 165.697C263.39 145.604 184.088 104.185 106.824 99.2574L106.384 95.9574H106.824Z" fill="#3E3E3E"/>
<path fill-rule="evenodd" clip-rule="evenodd" d="M136.977 91.7688L119.377 96.6088L105.517 94.8489C115.021 93.4409 135.437 86.7822 144.457 83.6289C152.905 80.8129 185.231 76.4422 200.337 74.6089C203.637 74.0955 213.229 71.0889 225.197 63.1689C237.165 55.2489 245.291 51.9489 247.857 51.2889C243.897 53.3422 234.921 58.2849 230.697 61.6289C226.473 64.9729 216.031 71.0889 211.337 73.7289L227.837 73.0689C230.697 72.1155 238.705 68.4929 247.857 61.6289C257.009 54.7649 269.711 50.4089 274.917 49.0889L281.077 49.5289C268.933 50.5849 251.377 61.7022 244.117 67.1289L234.217 73.0689C238.031 73.4356 249.309 74.433 263.917 75.4889C278.525 76.5447 286.284 75.0489 288.337 74.1691C298.604 69.4757 321.381 60.7051 330.357 63.1691C339.333 65.6331 348.324 72.2624 351.697 75.2691C349.409 75.2691 346.491 75.5624 345.317 75.7091C387.029 85.2131 397.017 122.789 396.797 140.389C378.669 128.597 355.804 121.102 346.637 118.829C341.181 110.733 330.137 100.936 325.297 97.0491C330.929 107.081 332.044 114.576 331.897 117.069C316.585 105.101 260.397 104.602 234.217 105.849C225.051 106.362 205.969 107.301 202.977 106.949C199.237 106.509 185.817 102.109 181.857 99.0291C178.689 96.5651 175.844 95.8024 174.817 95.7291C179.569 98.8973 182.371 103.796 183.177 105.849C168.921 92.4728 146.437 90.8888 136.977 91.7688ZM229.817 81.8675C225.769 80.1075 220.944 80.4009 219.037 80.7675C225.857 82.3072 257.537 98.5878 261.277 100.788C264.269 102.548 269.857 102.988 272.277 102.988C269.796 101.995 260.353 97.1489 254.509 94.1495C252.579 93.1591 251.042 92.3701 250.277 91.9878C249.61 91.6541 248.508 91.0929 247.141 90.3963L247.139 90.3953C242.196 87.8775 233.78 83.5905 229.817 81.8675ZM303.734 105.85C293.834 105.263 273.33 103.386 270.514 100.57C266.994 97.0497 234.654 81.8697 229.814 80.1097C237.441 79.8164 255.158 79.7577 265.014 81.8697C277.334 84.5097 295.814 93.9699 303.734 105.85ZM203.629 104.091C208.029 105.323 242.715 103.578 259.509 102.551C250.415 98.3715 231.085 89.2195 226.509 86.0515C221.933 82.8835 215.215 81.3581 212.429 80.9915C194.301 82.0475 161.315 87.4448 147.089 90.0115C156.593 90.0115 168.649 94.7048 173.489 97.0515C171.201 94.4115 167.549 91.2581 166.009 90.0115C171.641 90.3635 181.702 96.3181 186.029 99.2515C184.445 96.7875 178.915 90.8915 176.349 88.2515C193.373 101.641 197.258 102.558 201.598 103.581C202.249 103.734 202.911 103.89 203.629 104.091ZM115.404 94.4132C144.59 85.0999 217.968 68.9372 277.984 78.7932C280.55 79.0133 287.4 79.0136 294.264 77.2536C295.809 76.8573 297.684 76.3181 299.786 75.7133C309.353 72.9611 323.644 68.85 333.204 70.6536C326.53 71.0202 310.632 72.9854 300.424 77.9134C297.93 78.7201 292.064 80.3334 288.544 80.3334C298.517 82.3867 319.608 86.5814 324.184 86.9334C329.904 87.3734 346.624 88.2534 349.484 88.2534C352.344 88.2534 365.984 89.7934 375.224 96.6134C372.07 94.4134 362.156 89.9254 347.724 89.5734C333.292 89.2214 325.87 88.6934 323.964 88.4734C332.324 91.1134 352.52 98.8574 366.424 108.713C372.51 109.74 385.784 113.377 390.184 119.713C388.277 117.88 381.472 113.421 369.504 110.253C373.024 112.087 381.032 117.249 384.904 123.233C378.23 117.587 360.352 104.489 342.224 97.2734C347.498 103.181 358.236 115.118 360.659 117.484C360.763 117.579 360.851 117.66 360.922 117.725C361.191 117.973 361.212 117.993 360.924 117.733C360.852 117.668 360.763 117.585 360.659 117.484C358.141 115.16 346.193 104.083 340.684 97.2734C334.597 93.4601 315.252 85.0414 286.564 81.8734C250.704 77.9134 225.844 77.253 211.544 78.7932C210.055 78.9536 208.396 79.1211 206.567 79.3059C190.822 80.8964 162.376 83.77 119.804 94.4132H115.404Z" fill="#3E3E3E"/>
<path d="M106.529 89.9144C106.512 89.9263 106.498 89.9422 106.489 89.9606L104.729 93.4803C104.71 93.5176 104.711 93.5619 104.732 93.5982L105.612 95.1382C105.641 95.1879 105.699 95.212 105.754 95.1965L111.254 93.6565C111.304 93.6425 111.34 93.5991 111.345 93.5475C111.364 93.3382 111.484 93.0719 111.705 92.7546C111.925 92.44 112.236 92.0878 112.62 91.7083C113.388 90.9497 114.436 90.0929 115.597 89.2253C117.917 87.4906 120.674 85.722 122.505 84.6233C122.519 84.6152 122.53 84.6046 122.54 84.5921C133.97 69.6452 144.583 63.7267 148.435 62.6364C148.445 62.6336 148.454 62.6295 148.463 62.6243C149.16 62.2211 150.082 61.6441 150.566 61.2307C150.687 61.1277 150.788 61.0289 150.851 60.941C150.882 60.8975 150.91 60.8483 150.922 60.7962C150.935 60.7404 150.931 60.6727 150.884 60.6156C150.841 60.5642 150.78 60.5415 150.727 60.5308C150.671 60.5197 150.605 60.5178 150.53 60.5223C150.381 60.5315 150.177 60.5682 149.91 60.6349C148.838 60.903 146.808 61.8454 144.72 62.9052C142.886 63.8356 140.995 64.863 139.642 65.6216L142.321 62.1764C144.191 61.2895 148.015 58.7288 152.031 55.8923C156.071 53.039 160.319 49.8977 162.996 47.8759C163.018 47.8591 163.034 47.8353 163.041 47.8084L163.921 44.5084C163.938 44.4471 163.906 44.3833 163.847 44.3599C163.788 44.3366 163.721 44.3611 163.691 44.4169C163.086 45.54 161.894 46.8148 160.346 48.144C158.8 49.4711 156.908 50.8443 154.915 52.1655C151.119 54.6816 146.962 57.004 144.138 58.4534L146.284 55.1376C150.076 53.6296 154.016 50.7493 157.399 47.7654C160.794 44.7704 163.637 41.6634 165.218 39.7149C165.233 39.6956 165.243 39.6722 165.245 39.6475L165.465 37.2275C165.471 37.1687 165.434 37.1143 165.378 37.0968C165.321 37.0793 165.261 37.1036 165.232 37.155C163.219 40.7422 159.842 44.0485 156.431 46.7263C153.118 49.3264 149.781 51.3271 147.65 52.4108C147.731 52.1895 147.859 51.86 148.049 51.3928C148.644 49.9261 149.835 47.1224 152.035 42.1064C156.431 32.0829 153.323 20.9492 151.189 16.5543L106.529 89.9144ZM106.529 89.9144C109.02 88.1561 112.977 85.1991 116.751 82.0446C120.514 78.8988 124.082 75.5664 125.839 73.0334C125.985 71.0532 126.159 67.9173 126.21 64.9014C126.261 61.8623 126.187 58.9633 125.839 57.4852C125.484 55.9782 125.692 55.1276 126.163 54.7018C126.631 54.2792 127.303 54.3257 127.76 54.478C127.811 54.4948 127.845 54.5417 127.846 54.5948C127.882 57.2719 127.915 61.3537 127.895 64.8985C127.885 66.6708 127.862 68.3098 127.819 69.5721C127.797 70.2032 127.771 70.7413 127.739 71.1554C127.728 71.2995 127.716 71.4305 127.703 71.5463C130.821 67.8799 135.35 62.4039 139.284 57.3257C141.315 54.7047 143.186 52.1909 144.622 50.0873C145.34 49.0354 145.949 48.0874 146.414 47.2805C146.88 46.473 147.198 45.8139 147.341 45.3365M106.529 89.9144L147.341 45.3365M147.341 45.3365L147.4 45.1055C147.416 45.0398 147.482 44.9993 147.548 45.0142C147.614 45.0292 147.657 45.0942 147.643 45.1607C147.628 45.2371 147.607 45.318 147.582 45.4032C147.184 46.9584 146.328 50.0011 145.653 51.3521C145.537 51.5831 145.141 52.1667 144.541 53.0035C143.938 53.845 143.121 54.9527 142.155 56.2387C140.222 58.8109 137.692 62.098 135.079 65.3987C132.466 68.6994 129.77 72.0146 127.506 74.6427C126.374 75.9567 125.35 77.0999 124.498 77.984C123.649 78.8648 122.962 79.4979 122.507 79.7822C121.109 80.6557 118.257 83.0314 115.252 85.6553C112.311 88.2227 109.233 91.0189 107.248 92.8547L108.133 93.3857C109.926 92.0389 113.85 89.0171 115.757 87.2837C118.179 85.0818 132.247 72.1117 139.057 62.0063C144.491 53.9429 147.609 48.2698 148.498 46.4223C148.681 44.4441 148.866 41.2818 148.831 38.1966C148.814 36.6481 148.741 35.121 148.585 33.7738C148.429 32.4244 148.191 31.2642 147.846 30.4447C146.967 28.3575 145.813 25.8861 144.743 23.8826C144.208 22.8805 143.694 21.998 143.248 21.3398C143.024 21.0105 142.819 20.7399 142.637 20.5392C142.453 20.3349 142.304 20.216 142.194 20.1722C142.078 20.1258 141.985 20.0761 141.916 20.0219C141.846 19.9679 141.792 19.9033 141.77 19.8254C141.722 19.6575 141.837 19.5242 141.944 19.4407C142.059 19.3507 142.219 19.273 142.381 19.2096C142.545 19.1454 142.72 19.0926 142.87 19.0549C142.918 19.0431 142.967 19.0598 142.998 19.0976C144.544 21.0114 146.772 24.3205 148.438 28.035C149.857 31.2002 150.876 34.675 150.703 37.8369C151.151 35.6317 151.309 31.9024 149.822 27.5768C147.895 21.9693 144.052 17.4982 142.376 15.9685C142.356 15.9496 142.342 15.9243 142.337 15.8967L142.117 14.5767C142.109 14.5248 142.133 14.4731 142.179 14.4473C142.225 14.4214 142.282 14.427 142.322 14.4612C143.869 15.7869 146.208 18.1482 148.205 20.9292C149.926 23.3254 151.403 26.0457 151.891 28.6913C151.99 27.1262 152.055 25.1146 151.996 23.1338C151.958 21.8519 151.868 20.5849 151.703 19.4612C151.537 18.3355 151.297 17.3619 150.963 16.662C150.952 16.6384 150.94 16.6151 150.929 16.5921L151.153 16.4803C151.165 16.5046 151.177 16.5292 151.189 16.5541L147.341 45.3365ZM106.601 90.0165C111.587 86.4965 122.441 78.1805 125.961 73.0765C126.254 69.1165 126.665 60.4485 125.961 57.4565C125.257 54.4645 126.841 54.3032 127.721 54.5965C127.79 59.6606 127.846 69.7513 127.554 71.7207M145.541 51.2962C144.661 53.0562 125.961 77.4762 122.441 79.6762M115.841 87.3762C118.261 85.1762 132.341 72.1962 139.161 62.0762M148.621 46.4562C148.987 42.4962 149.369 33.7402 147.961 30.3962C146.201 26.2162 143.341 20.4962 142.241 20.0562M150.503 38.6669C150.471 38.9193 150.43 39.1692 150.381 39.4162M150.626 38.6918C151.204 36.6535 151.64 32.4789 149.941 27.5362C148.005 21.9042 144.147 17.4162 142.461 15.8762M142.389 14.6841C145.392 17.301 151.096 23.5419 151.853 29.2483M147.59 52.5815C151.824 50.4506 161.086 44.5395 165.191 37.4775M165.121 39.6362C161.967 43.5228 153.769 52.0442 146.201 55.0362M144.003 58.6634C149.566 55.8247 160.693 49.3841 163.564 44.8778M149.941 60.7562C152.053 60.2282 149.794 61.7095 148.401 62.5162C144.514 63.6162 133.881 69.5562 122.441 84.5162C118.774 86.7162 111.397 91.6002 111.221 93.5362M151.921 42.0562C155.905 32.9707 153.695 22.9595 151.663 17.9372M151.076 16.6082C152.353 19.2819 152.236 25.7334 151.978 29.2446M147.424 45.4889C146.053 49.5693 133.913 64.4463 127.672 71.7748M156.585 46.923C153.179 49.5962 149.747 51.6391 147.611 52.7108C147.595 52.7391 147.58 52.7641 147.566 52.7849C147.557 52.7991 147.547 52.813 147.538 52.825C147.53 52.8344 147.515 52.8529 147.494 52.8671C147.484 52.8735 147.458 52.8897 147.421 52.8905C147.372 52.8916 147.332 52.8656 147.31 52.8314C147.293 52.8051 147.29 52.7795 147.289 52.7689C147.288 52.7559 147.288 52.7441 147.289 52.7356C147.292 52.7044 147.302 52.6639 147.315 52.6202C147.368 52.4378 147.52 52.0318 147.817 51.2988C148.414 49.8286 149.606 47.0222 151.806 42.0059C155.587 33.3863 153.765 23.9209 151.833 18.7209C151.876 18.9487 151.915 19.1838 151.95 19.4248C152.117 20.5613 152.207 21.8386 152.246 23.1263C152.322 25.7018 152.191 28.3272 152.045 29.9672C152.039 30.0324 151.984 30.0821 151.919 30.0811C151.853 30.0802 151.8 30.0288 151.796 29.9635C151.622 27.0073 149.989 23.8411 148.002 21.0751C146.128 18.4652 143.949 16.2266 142.421 14.8788L142.577 15.8131C144.291 17.3902 148.127 21.8741 150.059 27.4955C152.004 33.1554 151.168 37.8213 150.496 39.4635C150.472 39.5231 150.406 39.5544 150.345 39.5358C150.283 39.5172 150.245 39.4548 150.258 39.3916C150.954 35.9103 149.867 31.8332 148.21 28.1373C146.572 24.4855 144.386 21.2262 142.854 19.3175C142.731 19.3509 142.597 19.3933 142.472 19.4424C142.318 19.5028 142.184 19.5699 142.098 19.6376C142.003 19.7118 142.008 19.749 142.01 19.7562C142.013 19.7658 142.024 19.7898 142.069 19.8247C142.114 19.8593 142.183 19.8986 142.287 19.9401C142.453 20.0063 142.634 20.1624 142.823 20.3715C143.015 20.5841 143.228 20.8652 143.454 21.1994C143.908 21.8681 144.426 22.7593 144.963 23.7648C146.038 25.7762 147.195 28.2548 148.076 30.3476C148.435 31.2001 148.677 32.3884 148.834 33.745C148.991 35.1038 149.064 36.6402 149.081 38.1938C149.116 41.3009 148.929 44.4843 148.745 46.4677C148.744 46.4825 148.74 46.4969 148.733 46.5102C147.85 48.3508 144.722 54.047 139.264 62.146C132.435 72.2806 118.343 85.2705 115.925 87.4686C113.984 89.2332 109.975 92.3166 108.216 93.6362C108.175 93.6666 108.12 93.6695 108.076 93.6433L106.976 92.9833C106.943 92.9631 106.92 92.9282 106.916 92.889C106.912 92.8499 106.927 92.8112 106.956 92.7844C108.936 90.9505 112.083 88.0897 115.087 85.467C118.088 82.8475 120.956 80.4566 122.374 79.5702C122.8 79.3044 123.467 78.6932 124.318 77.8105C125.165 76.9312 126.186 75.7919 127.317 74.4796C129.577 71.8552 132.271 68.5429 134.883 65.2436C137.495 61.9444 140.024 58.6589 141.955 56.0886C142.921 54.8033 143.737 53.6973 144.338 52.8579C144.943 52.0137 145.324 51.4492 145.429 51.2403C145.91 50.2777 146.492 48.4184 146.927 46.8757C146.835 47.0452 146.737 47.222 146.631 47.4054C146.161 48.2198 145.548 49.1736 144.828 50.2283C143.388 52.3378 141.514 54.856 139.482 57.4788C135.418 62.7246 130.721 68.3935 127.596 72.0573C127.557 72.1028 127.491 72.1144 127.439 72.085C127.387 72.0556 127.363 71.9934 127.382 71.9366C127.42 71.8219 127.457 71.5512 127.49 71.1361C127.521 70.7272 127.548 70.1932 127.569 69.5636C127.612 68.3048 127.635 66.6686 127.645 64.8971C127.665 61.3943 127.633 57.3662 127.597 54.6892C127.186 54.573 126.675 54.5762 126.331 54.8873C125.966 55.2168 125.733 55.9429 126.082 57.4279C126.439 58.9417 126.511 61.8728 126.46 64.9057C126.408 67.9445 126.232 71.1039 126.085 73.0858C126.084 73.1079 126.076 73.1292 126.064 73.1475C124.293 75.7152 120.687 79.0798 116.911 82.2364C113.144 85.3852 109.196 88.3368 106.698 90.1005L104.982 93.5322L105.781 94.9295L111.108 93.4379C111.153 93.1854 111.295 92.906 111.5 92.6114C111.732 92.2797 112.055 91.9156 112.445 91.5305C113.224 90.7601 114.283 89.8954 115.447 89.025C117.767 87.2902 120.52 85.5235 122.356 84.4213C133.786 69.4813 144.42 63.5205 148.352 62.4002C149.046 61.9973 149.942 61.435 150.404 61.0406C150.521 60.941 150.603 60.8581 150.647 60.7957C150.653 60.7873 150.658 60.7799 150.662 60.7734C150.636 60.7699 150.598 60.7687 150.546 60.7719C150.419 60.7796 150.232 60.8121 149.971 60.8774C148.931 61.1373 146.928 62.0649 144.833 63.1281C142.743 64.1886 140.578 65.3756 139.222 66.1449C139.171 66.1743 139.105 66.163 139.066 66.1179C139.027 66.0728 139.025 66.0065 139.062 65.9594L142.142 61.9994C142.154 61.9839 142.17 61.9714 142.188 61.963C144.023 61.0996 147.845 58.5427 151.887 55.6881C155.907 52.8488 160.133 49.7238 162.811 47.7023L163.465 45.2501C162.782 46.2217 161.752 47.2665 160.509 48.3337C158.952 49.67 157.051 51.0495 155.053 52.3738C151.057 55.0226 146.664 57.456 143.837 58.8877C143.787 58.9132 143.726 58.9017 143.688 58.8598C143.65 58.8178 143.645 58.7557 143.676 58.7082L146.096 54.9682C146.11 54.9464 146.131 54.9295 146.155 54.9199C149.919 53.4318 153.848 50.5646 157.234 47.5779C160.601 44.6077 163.422 41.527 165 39.5869L165.165 37.7682C163.106 41.2062 159.853 44.358 156.585 46.923Z" fill="#3E3E3E" stroke="#3E3E3E" stroke-width="0.25" stroke-linejoin="round"/>
</svg>
