<svg width="98" height="62" viewBox="0 0 98 62" fill="none" xmlns="http://www.w3.org/2000/svg">
<path d="M1 29.8131C2.22496 30.1859 6.017 30.4948 11.3855 28.748C16.754 27.0011 21.6467 25.3571 23.422 24.7535C20.9011 24.5405 15.5717 24.157 14.4213 24.3275L12.1311 22.6231C15.3799 22.8184 22.0586 23.2409 22.7829 23.3688L23.422 23.1557L24.0079 22.8894C24.6647 22.8717 26.0104 22.9427 26.1382 23.3688C26.7596 22.4989 27.5443 20.1626 25.7122 17.7766C26.227 17.7943 27.4165 18.2772 28.0556 20.0667C28.1266 19.2501 28.6308 17.212 30.0794 15.593C30.3279 15.2201 30.8357 14.2828 30.8783 13.5159C31.0026 13.6934 31.2618 14.1443 31.3044 14.5278C31.4464 14.1727 31.8902 13.2709 32.5293 12.5039C33.1684 11.737 33.3282 11.2612 33.3282 11.1192C33.559 11.4032 34.0419 12.2802 34.1271 13.5159C34.3046 12.9655 34.5532 11.5133 34.1271 10.1073C34.784 8.56277 35.7781 4.64291 34.4999 1.31955C34.5887 1.30179 34.894 1.3515 35.4053 1.69236C35.4763 1.62135 35.5757 1.38346 35.4053 1C36.577 1.23079 38.9843 2.67233 39.24 6.59219C39.4352 6.27264 39.8045 5.45245 39.7193 4.72813C39.9856 5.84657 40.1986 8.47756 38.9204 10.054C39.4707 9.53919 40.6353 8.36039 40.891 7.76389C41.2283 10.1428 40.3477 15.8273 34.1271 19.5341C34.4289 19.4631 35.2136 19.3637 35.9379 19.5341C34.1626 20.0667 30.4203 21.281 29.6533 21.8775C29.3515 22.055 28.5669 22.6018 27.8425 23.3688C29.7243 22.996 33.978 21.9521 35.9379 20.7591C37.8978 19.5661 42.0449 15.4332 43.8735 13.5159C43.4652 14.3858 42.4248 16.4132 41.5301 17.5635C43.1989 15.9303 47.5803 12.5572 51.7558 12.1311C55.9313 11.7051 67.0589 12.5217 72.1008 12.9833C70.3965 13.7111 66.647 15.4651 65.2836 16.6581C67.2897 15.7172 72.3351 14.0804 76.468 15.0604C81.6341 16.2853 82.3797 16.6581 85.6818 18.895C85.0072 18.7885 83.4662 18.7033 82.6993 19.2146C86.8712 19.0726 95.5454 21.9521 96.8662 34.6064C93.6706 32.9554 86.7789 29.632 84.7764 29.5468C83.4627 27.9135 80.4944 24.5192 79.1309 24.0079C79.8588 25.1263 81.2719 27.7254 81.1015 29.174C80.0896 28.4994 76.0632 27.0117 68.0531 26.4578C64.8043 26.3868 58.0936 26.2874 57.2415 26.4578C60.8631 27.7538 68.4259 30.5161 69.7041 31.1978C67.7158 31.5352 63.5261 32.2417 62.6739 32.3695C66.3843 31.8725 75.1259 32.3909 80.4092 38.4411C82.0247 39.8613 85.5327 42.8296 86.6405 43.3409H80.8352L83.0188 44.1398C83.8532 44.122 85.8203 44.1504 87.0133 44.4061C86.2499 44.4061 84.5207 44.47 83.7112 44.7256C85.9658 44.9742 90.9118 47.0158 92.6587 53.1938C94.4056 59.3719 93.3866 60.7743 92.6587 60.7033C91.5758 61.0584 88.9732 61.385 87.2263 59.8512C86.818 57.7031 85.6072 53.1086 84.0308 51.9156C84.6344 53.4956 85.6285 57.0604 84.7764 58.6795C77.4622 54.8981 62.397 46.7495 60.6501 44.4061C58.4664 41.4768 58.3599 41.9562 56.2296 37.5889C56.4071 38.5653 56.9645 41.136 57.7741 43.6072C57.0995 42.5598 53.2258 39.6554 43.1279 36.4172C42.1337 36.0089 39.9004 34.7769 38.9204 33.1152C38.9382 33.8608 39.0269 35.4479 39.24 35.8314C38.6364 34.3756 37.28 31.2937 36.6835 30.612C37.0386 31.6772 37.5357 34.1271 36.6835 35.4053C36.7723 33.7188 36.3853 29.9303 34.1271 28.2686C34.784 29.2095 35.7675 31.7411 34.4466 34.3401C34.8905 32.1621 33.978 27.3233 26.7774 25.3926C26.8839 25.3571 26.9052 25.4352 26.1382 26.0317C25.3713 26.6282 25.8187 26.4578 26.1382 26.298C25.8719 27.1857 24.8281 29.1953 22.7829 30.1327C22.6764 31.4109 21.558 34.404 17.9364 36.1509C13.4093 38.3346 11.8648 39.8791 10.9594 42.4355L9.3084 44.193C8.88233 42.9148 9.08471 39.5808 13.3028 36.4705C14.4213 35.6458 16.1788 35.1923 20.333 31.7304C19.9247 31.7304 19.0228 31.805 18.682 32.1033C18.3411 32.4015 17.4038 33.5057 16.9777 34.0206L14.4213 35.4053C14.8828 34.6419 15.8699 32.9234 16.5516 32.3695C14.1905 32.7246 9.0208 34.3827 6.80523 37.9617C6.52118 38.7606 6.0383 41.1253 6.37916 44.193C6.80523 48.0277 4.35532 52.5547 1.37281 53.2471C2.38473 52.6257 4.34466 49.455 4.08902 41.7431C3.83338 34.0312 13.3561 30.9316 18.1494 30.3457C19.3566 29.174 21.9095 26.7241 22.4634 26.298C23.1557 25.7654 3.44991 35.6184 1 29.8131Z" stroke="#7C7C7C" stroke-width="0.5" stroke-linejoin="round"/>
<path d="M5.79361 36.3638C9.24479 32.1031 15.5933 30.6119 18.2562 30.3988L16.7117 32.4227C13.7292 32.7955 10.4804 34.4998 9.09566 35.4052C7.98788 36.1295 7.14283 37.3048 6.85879 37.8018C6.628 38.1569 6.07398 39.0473 6.3262 42.2756C6.59249 45.6842 6.16642 47.1754 6.16642 47.2819C4.93081 51.3722 2.52705 53.0339 1.6394 53.1937C3.13066 52.1285 4.30236 44.9918 4.08932 41.8495C3.91889 39.3357 5.1545 37.145 5.79361 36.3638Z" fill="#7C7C7C"/>
<path d="M20.3329 31.7303C21.6964 30.4521 22.0727 28.9609 22.0905 28.375L23.3154 27.3098C22.9426 32.7955 20.8123 34.9791 16.1787 37.0562C12.4719 38.7179 11.1546 41.2992 10.9594 42.3821L9.30832 44.0332C8.45617 39.3464 13.7288 36.0443 14.2081 35.9378C14.6875 35.8313 18.6286 33.3281 20.3329 31.7303Z" fill="#7C7C7C"/>
<path d="M25.0197 26.6175C24.8919 24.4872 23.6882 23.5285 23.1024 23.3155C24.3273 22.5166 25.3393 22.7829 26.0316 23.3155C26.5855 23.7416 26.724 24.9843 26.724 25.5524L26.0316 26.6175C25.1262 28.3751 25.2327 28.162 22.9426 30.0261C21.1105 31.5174 19.3387 31.9967 18.6819 32.05L20.5459 29.8663C21.0785 29.7066 22.5698 28.6946 23.4219 28.162C24.1037 27.736 24.7712 26.9548 25.0197 26.6175Z" fill="#7C7C7C"/>
<path d="M21.9844 24.7002L24.9137 24.8067L22.1442 26.511M25.0734 25.5523C22.5703 27.9312 17.4361 32.966 16.9248 34.0737" stroke="#7C7C7C" stroke-width="4" stroke-linejoin="round"/>
<path fill-rule="evenodd" clip-rule="evenodd" d="M80.9043 39.0088L86.4817 43.3412H80.9961L82.9134 44.1933L85.8959 44.2999L83.659 44.7792C85.3278 44.8325 88.9581 45.9332 91.062 49.6258C92.2335 51.6818 92.8469 52.7183 93.172 53.8385C93.5712 55.2138 93.5358 56.7152 93.5652 60.3841C92.4112 60.8634 89.3897 61.3747 87.3871 60.0113C86.9966 57.7211 85.7787 52.9065 84.0318 51.9692C84.5822 53.4959 85.4805 56.9755 84.6709 58.6798L74.9778 53.4072C74.0724 51.0638 72.1657 45.8763 71.7823 43.8738C71.3988 41.8713 70.0957 40.3764 69.4921 39.8794H69.2258C69.7939 40.9978 70.9834 43.6714 71.1964 45.4183C71.4094 47.1652 72.6699 50.0518 73.2735 51.2768C72.6521 50.4069 71.2603 48.0173 70.6638 45.4183C69.9182 42.1695 68.1074 39.0272 65.7107 37.749C63.3141 36.4708 52.4492 31.2514 49.307 30.5058C46.5375 29.6004 40.7855 27.7896 39.9334 27.7896C41.9885 29.9505 45.8857 34.0126 47.3153 35.3838C47.5492 35.5809 47.7703 35.7666 47.9755 35.9382L47.8157 35.8317C47.7396 35.781 47.5651 35.6235 47.3153 35.3838C44.3309 32.8691 39.2598 28.4835 38.5486 27.4168C37.7853 27.257 36.1946 26.9481 35.9389 26.9907L37.3237 28.0026C38.1581 28.8192 39.9866 30.6762 40.6257 31.571C41.4246 32.6894 45.0995 36.7903 46.2179 37.3762L44.3006 36.7371C43.1644 35.4411 40.7962 32.6894 40.4127 32.0503C39.9334 31.2514 35.2998 26.7244 34.714 26.6179C34.2453 26.5327 33.063 26.3693 32.5304 26.2983C34.0216 27.3458 37.4622 30.1862 39.2943 33.1687C39.8801 33.9321 41.5951 35.6719 43.768 36.524C42.8626 36.2933 40.6151 35.2991 38.8682 33.1687V34.7132L36.7378 30.6656C37.0396 31.7307 37.4622 34.1274 36.7378 35.1926C36.6846 33.364 36.1307 29.4619 34.3412 28.4819C34.785 29.1921 35.4596 31.2621 34.6075 33.8611C34.7317 31.6597 33.3186 26.8416 26.6719 25.1799L26.2991 23.7952C28.607 24.0614 33.4464 24.626 34.3412 24.7538C35.0513 24.523 36.7378 23.923 37.803 23.3691L36.4183 24.381L39.9334 23.7952L41.2648 24.2212C39.6671 24.3732 36.365 24.7352 35.9389 24.9668C39.0635 25.677 45.7493 27.2357 47.4962 27.7896C49.3957 27.8428 53.5357 27.9174 54.8992 27.7896C56.1419 27.6831 58.9362 27.502 60.1718 27.6298L62.1956 28.3222C60.8819 28.1801 57.6047 27.96 55.0057 28.2156C52.4066 28.4713 49.6975 28.3932 48.6678 28.3222L54.4731 30.133C55.1299 30.3283 58.2971 30.5271 65.7107 29.7602L67.1487 30.2395C66.1013 30.2395 63.7188 30.2927 62.5684 30.5058C61.0949 30.72 57.7219 31.1108 56.0176 30.9603C62.1121 33.2594 67.7734 36.1264 71.7823 39.6131C73.6364 39.2849 77.6683 38.6807 79.9841 38.692C74.0724 33.5102 68.7465 32.7959 66.0835 32.7959C63.9532 32.7959 61.8228 32.5119 61.0239 32.3698L63.2076 32.1036C66.9357 31.7662 75.798 32.7107 81.4221 39.187L80.9043 39.0088ZM26.6185 24.0615C35.85 24.5408 59.4047 29.5365 79.7709 45.6846C80.5166 46.0219 82.6789 46.9096 85.3631 47.7617C86.8544 48.2766 90.1884 49.8921 91.5944 52.2355C90.5115 51.117 87.7491 48.7097 85.3631 48.028C82.9771 47.3463 81.0669 46.6078 80.41 46.3237C81.1024 46.8208 82.5085 47.9109 82.5937 48.2943L79.6112 46.1107C77.6761 44.7792 73.6249 42.0098 72.9005 41.5837C74.0367 43.1992 76.3091 47.1652 76.3091 50.1051C76.0251 48.4008 74.722 44.1827 71.7821 40.9446C64.5211 36.0803 45.323 26.0534 26.6185 24.8604L26.512 24.0615H26.6185Z" fill="#7C7C7C"/>
<path fill-rule="evenodd" clip-rule="evenodd" d="M33.9183 23.0476L29.6576 24.2193L26.3022 23.7932C28.603 23.4524 33.5455 21.8404 35.7291 21.077C37.7742 20.3953 45.5998 19.3372 49.2569 18.8934C50.0558 18.7691 52.3778 18.0412 55.2751 16.1239C58.1724 14.2066 60.1395 13.4077 60.7608 13.2479C59.8022 13.745 57.6292 14.9416 56.6066 15.7511C55.584 16.5606 53.056 18.0412 51.9198 18.6803L55.9142 18.5206C56.6066 18.2898 58.5452 17.4128 60.7608 15.7511C62.9764 14.0894 66.0512 13.0349 67.3117 12.7153L68.8029 12.8219C65.863 13.0775 61.613 15.7688 59.8554 17.0826L57.4588 18.5206C58.3819 18.6093 61.1123 18.8508 64.6487 19.1064C68.1851 19.362 70.0634 18.9999 70.5605 18.7869C73.0459 17.6507 78.56 15.5275 80.7329 16.124C82.9059 16.7205 85.0824 18.3253 85.8991 19.0532C85.3452 19.0532 84.6386 19.1242 84.3545 19.1597C94.4524 21.4605 96.8704 30.5571 96.8171 34.8179C92.4286 31.9632 86.8932 30.1488 84.6741 29.5985C83.3533 27.6385 80.6797 25.2668 79.508 24.3258C80.8714 26.7545 81.1413 28.5688 81.1057 29.1724C77.3989 26.2751 63.7966 26.1544 57.4588 26.4561C55.2396 26.5804 50.6203 26.8077 49.896 26.7225C48.9906 26.616 45.7418 25.5508 44.7831 24.8052C44.0162 24.2087 43.3274 24.024 43.0788 24.0063C44.2292 24.7733 44.9074 25.9591 45.1027 26.4561C41.6515 23.218 36.2084 22.8345 33.9183 23.0476ZM56.3935 20.6507C55.4135 20.2247 54.2454 20.2957 53.7838 20.3845C55.4348 20.7572 63.1041 24.6985 64.0095 25.2311C64.7339 25.6572 66.0866 25.7637 66.6725 25.7637C66.0719 25.5235 63.7858 24.3501 62.371 23.624L62.371 23.624L62.3702 23.6236L62.3679 23.6224L62.3677 23.6224C61.9021 23.3834 61.5313 23.1931 61.3466 23.1007C61.1849 23.0199 60.9181 22.884 60.5868 22.7152C59.3903 22.1057 57.3529 21.0679 56.3935 20.6507ZM74.2879 26.4565C71.8912 26.3145 66.9275 25.86 66.2458 25.1783C65.3936 24.3261 57.5645 20.6513 56.3929 20.2252C58.2392 20.1542 62.5283 20.14 64.9143 20.6513C67.8968 21.2904 72.3705 23.5805 74.2879 26.4565ZM50.0536 26.0309C51.1188 26.3291 59.5159 25.9066 63.5814 25.6581C61.38 24.6462 56.7003 22.4306 55.5925 21.6637C54.4847 20.8967 52.8586 20.5275 52.184 20.4387C47.7954 20.6943 39.8101 22.001 36.366 22.6223C38.6668 22.6223 41.5854 23.7585 42.7571 24.3266C42.2032 23.6875 41.3191 22.9241 40.9463 22.6223C42.3097 22.7075 44.7454 24.1491 45.7929 24.8592C45.4094 24.2627 44.0708 22.8354 43.4495 22.1962C47.5708 25.4377 48.5114 25.6595 49.5619 25.9073L49.5619 25.9073C49.7196 25.9445 49.8798 25.9822 50.0536 26.0309ZM28.6956 23.6878C35.7612 21.4331 53.5249 17.5204 68.054 19.9064C68.6753 19.9597 70.3334 19.9597 71.9951 19.5337C72.3693 19.4377 72.8231 19.3072 73.332 19.1608C75.6481 18.4945 79.1078 17.4993 81.422 17.9359C79.8064 18.0246 75.9576 18.5004 73.4864 19.6934C72.8828 19.8887 71.4625 20.2792 70.6104 20.2792C73.0248 20.7763 78.1306 21.7918 79.2383 21.877C80.6231 21.9835 84.6708 22.1966 85.3631 22.1966C86.0555 22.1966 89.3575 22.5694 91.5944 24.2204C90.831 23.6878 88.4308 22.6013 84.937 22.5161C81.4433 22.4309 79.6467 22.3031 79.1851 22.2498C81.2089 22.8889 86.0981 24.7636 89.4641 27.1497C90.9376 27.3982 94.1509 28.2787 95.216 29.8126C94.7545 29.3688 93.107 28.2894 90.2097 27.5225C91.0618 27.9663 93.0005 29.2161 93.9378 30.6647C92.3223 29.2978 87.9941 26.1271 83.6056 24.3802C84.8825 25.8103 87.482 28.7002 88.0687 29.2728C88.0937 29.2959 88.1148 29.3154 88.1319 29.3311C88.1972 29.3913 88.2024 29.3961 88.1326 29.3333C88.1151 29.3176 88.0937 29.2973 88.0687 29.2728C87.459 28.7104 84.5665 26.0287 83.2328 24.3802C81.7593 23.457 77.076 21.419 70.1311 20.6521C61.4498 19.6934 55.4316 19.5335 51.9697 19.9064C51.6093 19.9452 51.2078 19.9858 50.7649 20.0305C46.9534 20.4155 40.0669 21.1112 29.7607 23.6878H28.6956Z" fill="#7C7C7C"/>
<path d="M26.4924 22.5212C26.4756 22.5331 26.4619 22.549 26.4527 22.5674L26.0266 23.4195C26.0079 23.4568 26.0092 23.5011 26.0299 23.5374L26.2429 23.9102C26.2714 23.9599 26.33 23.984 26.3852 23.9685L27.7166 23.5957C27.7666 23.5817 27.8027 23.5383 27.8074 23.4867C27.8098 23.4608 27.8273 23.4129 27.8779 23.3404C27.9266 23.2707 27.9976 23.19 28.0884 23.1003C28.2697 22.921 28.5195 22.7166 28.799 22.5076C29.3573 22.0902 30.022 21.6638 30.4635 21.3989C30.477 21.3908 30.4889 21.3802 30.4984 21.3677C33.2579 17.7592 35.8114 16.3426 36.7177 16.0861C36.7277 16.0833 36.7373 16.0792 36.7463 16.074C36.9148 15.9765 37.1449 15.833 37.2695 15.7267C37.3002 15.7005 37.3318 15.6705 37.3539 15.6396C37.3646 15.6246 37.3793 15.6009 37.3863 15.5709C37.3942 15.5371 37.3929 15.4881 37.358 15.4456C37.3278 15.4088 37.288 15.3968 37.2653 15.3923C37.2407 15.3874 37.2156 15.3872 37.1935 15.3886C37.1488 15.3913 37.0927 15.4019 37.0262 15.4185C36.7542 15.4865 36.2528 15.7202 35.7497 15.9755C35.4666 16.1192 35.178 16.2723 34.9209 16.4121L35.273 15.9594C35.7416 15.7319 36.6616 15.1146 37.6173 14.4397C38.5964 13.7482 39.6254 12.9871 40.2741 12.4972C40.2964 12.4804 40.3124 12.4567 40.3196 12.4297L40.5326 11.6308C40.549 11.5695 40.5168 11.5057 40.4579 11.4824C40.3989 11.459 40.3318 11.4835 40.3018 11.5393C40.1639 11.7954 39.8864 12.0947 39.5137 12.4147C39.1435 12.7325 38.6891 13.0625 38.2084 13.3811C37.4269 13.8991 36.5814 14.3834 35.927 14.7315L36.2345 14.2563C37.1588 13.8824 38.1111 13.1836 38.9247 12.4659C39.7508 11.7372 40.4426 10.9812 40.8285 10.5057C40.8441 10.4864 40.8536 10.4629 40.8559 10.4382L40.9091 9.85237C40.9145 9.79363 40.878 9.73915 40.8217 9.72167C40.7654 9.70419 40.7045 9.72846 40.6756 9.7799C40.1973 10.6326 39.3908 11.4239 38.5691 12.0688C37.8806 12.6092 37.188 13.0418 36.683 13.3169C36.6841 13.3142 36.6852 13.3114 36.6864 13.3086C36.8299 12.9549 37.1178 12.2772 37.6503 11.063C38.7302 8.60072 37.9667 5.87427 37.4438 4.79753M26.4924 22.5212L37.7056 6.32148M26.4924 22.5212C27.0937 22.0967 28.0496 21.3825 28.9609 20.6207C29.8617 19.8677 30.707 19.078 31.1291 18.479M26.4924 22.5212L27.5781 23.3749M37.4438 4.79753L37.3313 4.85214M37.4438 4.79753L37.4441 4.79828C37.535 4.98852 37.5958 5.2422 37.6367 5.52024C37.6732 5.76871 37.6947 6.04333 37.7056 6.32148M37.4438 4.79753L37.4346 4.77881L37.211 4.89061L37.2185 4.906L37.3313 4.85214M37.3313 4.85214L37.2189 4.90675C37.3794 5.23727 37.5629 5.7288 37.7056 6.32148M37.3313 4.85214L37.2185 4.90601C37.2934 5.06275 37.3498 5.28747 37.3893 5.55659C37.4286 5.82381 37.4502 6.12662 37.4593 6.43472C37.4669 6.68947 37.466 6.94645 37.4598 7.18798M37.7056 6.32148C37.707 6.35671 37.7082 6.39199 37.7092 6.42728C37.7279 7.05518 37.6959 7.69455 37.6604 8.09457C37.6546 8.15978 37.5994 8.20947 37.534 8.20849C37.4685 8.20751 37.4149 8.1562 37.4111 8.09085C37.3706 7.40235 36.988 6.65384 36.5103 5.98879C36.3786 5.8054 36.2406 5.62964 36.1021 5.46469M37.4598 7.18798C37.5706 7.48345 37.6434 7.78248 37.6606 8.07617L37.5359 8.08351L37.4113 8.07244C37.4318 7.84241 37.4511 7.53074 37.4598 7.18798ZM37.4598 7.18798C37.2838 6.7187 37.0118 6.25843 36.7133 5.84294C36.2248 5.16281 35.6532 4.5857 35.2738 4.26047C35.2339 4.22625 35.1768 4.22067 35.131 4.24651C35.0852 4.27234 35.0605 4.32407 35.0692 4.37593L35.1224 4.69548C35.127 4.7231 35.1408 4.74837 35.1614 4.76724C35.5585 5.12978 36.4781 6.19942 36.9383 7.53829C37.0931 7.9887 37.1728 8.41125 37.2046 8.78739M37.2046 8.78739C37.3398 9.33627 37.3875 9.88892 37.2856 10.3982L37.163 10.3736L37.0473 10.3263C37.1454 10.0866 37.2673 9.5266 37.2046 8.78739ZM37.2046 8.78739C37.1033 8.37607 36.9528 7.96688 36.7791 7.57965C36.372 6.67199 35.8281 5.86402 35.4495 5.39527C35.4189 5.35742 35.3691 5.34075 35.3219 5.35255C35.2823 5.36246 35.236 5.37641 35.1918 5.39369C35.1496 5.41022 35.1009 5.433 35.0622 5.46322C35.0318 5.48699 34.9582 5.55563 34.9875 5.6572C35.0003 5.70193 35.0294 5.73299 35.0555 5.7533C35.0819 5.77385 35.1133 5.7898 35.146 5.80291C35.1459 5.80284 35.1478 5.8036 35.1518 5.80618C35.1559 5.80872 35.1612 5.81254 35.1679 5.81805C35.1816 5.82923 35.1984 5.84536 35.2182 5.86733C35.2581 5.9114 35.305 5.97297 35.3578 6.05081C35.4633 6.20619 35.5858 6.41653 35.7147 6.65781C35.9722 7.13981 36.2501 7.73542 36.462 8.23853C36.5403 8.42443 36.5968 8.69468 36.6343 9.01859C36.6715 9.34037 36.689 9.70655 36.6932 10.0795C36.7014 10.8137 36.658 11.5666 36.6146 12.044M36.6146 12.044C36.6179 12.037 36.6212 12.0303 36.6243 12.0238L36.737 12.0779L36.6125 12.0664C36.6132 12.059 36.6139 12.0515 36.6146 12.044ZM36.6146 12.044C36.5701 12.1353 36.5047 12.2627 36.418 12.4234M36.418 12.4234C36.3207 12.7521 36.2046 13.1026 36.1031 13.3055C36.071 13.3698 35.9696 13.5184 35.8264 13.7181C35.6798 13.9227 35.4816 14.1914 35.2475 14.5031C35.1194 14.6735 34.9806 14.8568 34.8335 15.0495M36.418 12.4234C36.3029 12.6369 36.1504 12.9091 35.96 13.234C35.6717 13.7259 35.2967 14.3383 34.8335 15.0495M36.418 12.4234C36.4825 12.2057 36.5387 11.9976 36.5769 11.8482M34.8335 15.0495C34.6798 15.2856 34.5164 15.5325 34.3432 15.7895C33.6435 16.8277 32.6247 17.9927 31.6405 19.029M34.8335 15.0495C34.4424 15.562 33.9929 16.1414 33.5329 16.7225C32.9 17.522 32.2463 18.3257 31.6972 18.9633C31.6782 18.9854 31.6593 19.0073 31.6405 19.029M31.6405 19.029C31.3883 19.3203 31.159 19.5753 30.9654 19.7761C30.7628 19.9862 30.5907 20.1465 30.4695 20.2234M31.6405 19.029C31.2362 19.4548 30.8377 19.8588 30.4695 20.2234M30.4695 20.2234C29.6319 21.0531 28.9516 21.6786 28.7173 21.8916C28.2766 22.2923 27.3831 22.9827 26.9294 23.3249M30.4695 20.2234C30.4681 20.2243 30.4668 20.2252 30.4654 20.226C30.1348 20.4326 29.4507 21.002 28.7211 21.6389C28.0544 22.2209 27.3583 22.8518 26.8784 23.2942M26.9294 23.3249L27.0016 23.3682L26.9373 23.4754L26.8623 23.3754C26.8834 23.3595 26.9058 23.3427 26.9294 23.3249ZM26.9294 23.3249L26.8784 23.2942M26.8784 23.2942C26.8358 23.3334 26.7949 23.3712 26.7559 23.4073L26.671 23.3156L26.7353 23.2084L26.8784 23.2942ZM36.5769 11.8482C36.5766 11.8491 36.5764 11.8499 36.5761 11.8507C36.5362 11.9844 36.4515 12.157 36.3373 12.3551C36.2472 12.5112 36.1362 12.6876 36.0085 12.8795M36.5769 11.8482C36.5835 11.826 36.589 11.8041 36.5932 11.7829C36.6065 11.7164 36.5644 11.6514 36.4983 11.6365C36.4321 11.6215 36.3661 11.662 36.3495 11.7277L36.3359 11.7816M36.5769 11.8482C36.5771 11.8475 36.5773 11.8467 36.5775 11.8459C36.5775 11.8457 36.5776 11.8455 36.5776 11.8453M36.0085 12.8795C35.964 13.0034 35.9201 13.1126 35.8795 13.1937C35.8584 13.2359 35.7717 13.3654 35.6232 13.5725C35.4782 13.7749 35.2811 14.0421 35.0476 14.3529C34.5806 14.9745 33.9687 15.7692 33.3369 16.5673C32.705 17.3656 32.0537 18.1663 31.5078 18.8002C31.2347 19.1173 30.9888 19.3916 30.7854 19.6026C30.5787 19.817 30.4246 19.9567 30.3329 20.014C29.9818 20.2335 29.2812 20.8181 28.5567 21.4506C27.8286 22.0862 27.0661 22.7794 26.5861 23.2239C26.5572 23.2506 26.5426 23.2893 26.5467 23.3285C26.5507 23.3676 26.573 23.4025 26.6067 23.4228L26.8614 23.5756M36.0085 12.8795C35.9726 12.9333 35.9355 12.9884 35.8971 13.0445C35.5469 13.5575 35.0919 14.1688 34.5995 14.8044C33.6146 16.0758 32.4764 17.4494 31.7192 18.3371C31.6804 18.3826 31.6147 18.3942 31.5626 18.3648C31.5106 18.3354 31.4866 18.2732 31.5055 18.2164C31.5104 18.2018 31.5189 18.1485 31.527 18.0453C31.5345 17.9483 31.5408 17.8206 31.5459 17.6687C31.5563 17.3653 31.5619 16.9702 31.5643 16.5417C31.569 15.7276 31.562 14.7959 31.5537 14.1497M36.0085 12.8795C36.1338 12.5302 36.2636 12.0645 36.3353 11.784L36.3359 11.7816M26.8614 23.5756L26.8804 23.5703L26.9863 23.5406L27.1012 23.5084M26.8614 23.5756L26.873 23.5825C26.9166 23.6087 26.9717 23.6059 27.0123 23.5754C27.0398 23.5548 27.0695 23.5324 27.1012 23.5084M26.8614 23.5756L26.4116 23.7015M27.1012 23.5084C27.5614 23.1609 28.4423 22.4794 28.8855 22.0766C29.4693 21.5459 32.8896 18.3937 34.5505 15.9292C35.8734 13.9662 36.6331 12.5831 36.8497 12.132C36.8561 12.1186 36.8601 12.1042 36.8614 12.0895C36.9061 11.6067 36.9517 10.8327 36.9432 10.0767C36.9389 9.69861 36.9212 9.32316 36.8826 8.98986C36.8443 8.65868 36.7845 8.36039 36.6924 8.14152C36.4782 7.63271 36.1969 7.02999 35.9352 6.54001C35.9152 6.50266 35.8953 6.4659 35.8756 6.42984M27.1012 23.5084L27.5781 23.3749M35.8756 6.42984C35.6738 6.10956 35.4757 5.83192 35.307 5.61761C35.2989 5.62046 35.2908 5.62343 35.2829 5.6265C35.2486 5.63994 35.2264 5.65222 35.2162 5.66017C35.2146 5.66138 35.214 5.66202 35.214 5.66201C35.2141 5.66201 35.2175 5.65875 35.2214 5.65169C35.228 5.63978 35.2343 5.61891 35.2293 5.59466C35.2289 5.59247 35.2283 5.59026 35.2277 5.58802C35.2213 5.56578 35.2091 5.55599 35.209 5.55598C35.209 5.55597 35.2091 5.55601 35.2091 5.55607C35.2104 5.55702 35.2184 5.5626 35.2389 5.57079C35.2574 5.5782 35.2755 5.58811 35.2929 5.59977C35.2801 5.58359 35.2674 5.56778 35.255 5.55236L35.3522 5.47382L35.3826 5.59508C35.3611 5.60046 35.3375 5.60727 35.3143 5.6151C35.3465 5.63974 35.3765 5.66959 35.4036 5.69964C35.4543 5.75565 35.5085 5.82764 35.5647 5.91041C35.6601 6.05093 35.7659 6.22967 35.8756 6.42984ZM35.8756 6.42984C36.1092 6.80074 36.3478 7.22883 36.551 7.68196C36.9498 8.57106 37.2032 9.53568 37.0405 10.3491C37.0278 10.4123 37.0653 10.4747 37.127 10.4933C37.1886 10.5119 37.2543 10.4806 37.2787 10.421C37.4503 10.0016 37.653 8.84832 37.1747 7.45702C36.9067 6.67736 36.4901 5.98751 36.1021 5.46469M36.1021 5.46469C35.8371 5.14911 35.5704 4.87307 35.3426 4.65879L35.2457 4.67493L35.2982 4.6174C35.2318 4.55586 35.1691 4.49996 35.1111 4.45028L35.1925 4.35538L35.3158 4.33483L35.362 4.61228C35.5461 4.78531 35.8163 5.07972 36.1021 5.46469ZM27.5781 23.3749C27.599 23.3138 27.6335 23.2538 27.673 23.1972C27.7336 23.1104 27.8161 23.0178 27.9126 22.9224C28.1059 22.7315 28.3661 22.5192 28.6493 22.3074C29.2079 21.8898 29.8683 21.4653 30.3144 21.1969M27.5781 23.3749L36.5591 13.6646M27.5781 23.3749C27.568 23.4045 27.5612 23.4343 27.5585 23.464L27.6829 23.4754L27.6492 23.355L27.5781 23.3749ZM26.4116 23.7015L26.46 23.7862L26.3515 23.8482L26.3178 23.7278L26.4116 23.7015ZM26.4116 23.7015L26.2802 23.4714M26.2802 23.4714L26.2502 23.5313L26.1384 23.4754L26.247 23.4133L26.2802 23.4714ZM26.2802 23.4714L26.6623 22.7073M26.6623 22.7073C26.6536 22.7134 26.6451 22.7194 26.6366 22.7254L26.5645 22.6233L26.6763 22.6792L26.6623 22.7073ZM26.6623 22.7073C27.2694 22.2776 28.2168 21.5686 29.1212 20.8125C30.035 20.0487 30.9173 19.2268 31.3542 18.5933C31.3668 18.575 31.3743 18.5537 31.3759 18.5316C31.4116 18.0504 31.4543 17.2837 31.4668 16.5459C31.4792 15.8141 31.4624 15.0923 31.373 14.7123C31.2903 14.3612 31.3564 14.2326 31.4043 14.1893C31.4396 14.1574 31.4941 14.1448 31.5537 14.1497M31.5537 14.1497C31.5533 14.1157 31.5528 14.0826 31.5524 14.0503L31.6774 14.0486L31.6378 14.1672C31.6096 14.1578 31.5811 14.1519 31.5537 14.1497ZM36.3359 11.7816C36.3042 11.8861 36.232 12.0372 36.1207 12.2301C36.0097 12.4226 35.8638 12.65 35.6907 12.9036C35.3445 13.4106 34.8929 14.0174 34.4019 14.6513C33.5267 15.781 32.5294 16.9926 31.788 17.8697M36.3359 11.7816C36.3361 11.7808 36.3364 11.78 36.3366 11.7792L36.4564 11.8149L36.5775 11.8456L36.5776 11.8453M31.788 17.8697C31.7845 17.9428 31.7806 18.0082 31.7762 18.0646C31.7688 18.1606 31.7591 18.2463 31.7427 18.2955L31.6241 18.256L31.529 18.1749C31.6111 18.0786 31.6977 17.9767 31.788 17.8697ZM31.788 17.8697C31.7909 17.8104 31.7935 17.746 31.7958 17.6772C31.8062 17.3703 31.8119 16.9725 31.8143 16.5431C31.8192 15.6841 31.8112 14.6954 31.8024 14.0469C31.8016 13.9937 31.7673 13.9468 31.7169 13.93C31.5935 13.8889 31.3876 13.8675 31.2367 14.0038C31.0823 14.1433 31.0418 14.3965 31.1296 14.7696C31.2106 15.1139 31.2293 15.8036 31.2168 16.5417C31.2048 17.2566 31.164 17.9998 31.1291 18.479M31.1291 18.479C31.1357 18.4698 31.1421 18.4606 31.1484 18.4514L31.2513 18.5224L31.1266 18.5131C31.1275 18.5019 31.1283 18.4905 31.1291 18.479ZM36.5776 11.8453C36.5827 11.825 36.5825 11.8045 36.5779 11.7855M36.5776 11.8453L36.5919 11.789L36.5779 11.7855M36.5779 11.7855L36.4707 11.7584L36.3593 11.7361M36.5779 11.7855C36.5774 11.7835 36.5768 11.7815 36.5763 11.7795C36.5644 11.7395 36.5328 11.7064 36.4897 11.6945C36.4426 11.6814 36.3942 11.6972 36.3635 11.7313C36.362 11.7328 36.3607 11.7345 36.3593 11.7361M36.3593 11.7361C36.3493 11.7484 36.3415 11.7628 36.3367 11.7789C36.3417 11.762 36.3455 11.747 36.3481 11.7339L36.3593 11.7361ZM30.3144 21.1969C32.1666 18.7792 33.9357 17.3272 35.1968 16.5471M30.3144 21.1969C30.3212 21.1927 30.3281 21.1886 30.3348 21.1846L30.3991 21.2917L30.2999 21.2158C30.3047 21.2095 30.3095 21.2032 30.3144 21.1969ZM35.1968 16.5471C34.9315 16.6897 34.69 16.8237 34.5085 16.9267C34.4567 16.9561 34.3913 16.9448 34.3523 16.8997C34.3133 16.8547 34.3116 16.7883 34.3482 16.7412L35.0938 15.7826C35.1059 15.767 35.1214 15.7546 35.1393 15.7462C35.5745 15.5415 36.4922 14.9282 37.4731 14.2355C37.9303 13.9125 38.3986 13.5743 38.8338 13.2557M35.1968 16.5471C35.7164 16.2257 36.1498 16.0183 36.4672 15.9046M35.1968 16.5471C35.4099 16.4326 35.6382 16.3125 35.8628 16.1985C36.0751 16.0907 36.2814 15.9899 36.4672 15.9046M38.8338 13.2557C38.6756 13.368 38.5123 13.4796 38.3465 13.5895C37.3754 14.2332 36.3085 14.8241 35.6217 15.1719C35.5714 15.1975 35.5101 15.186 35.4723 15.144C35.4346 15.1021 35.4296 15.0399 35.4603 14.9925L36.0462 14.0871C36.0603 14.0653 36.0809 14.0484 36.1052 14.0388C37.0013 13.6845 37.9427 12.9988 38.7593 12.2784C38.9257 12.1317 39.0864 11.9839 39.2402 11.8376M38.8338 13.2557C38.9709 13.1553 39.1047 13.0569 39.2339 12.9615M38.8338 13.2557C38.9715 13.158 39.1053 13.0597 39.2339 12.9615M39.2402 11.8376C39.0699 11.9867 38.8966 12.1296 38.7235 12.2655C37.9064 12.9067 37.0832 13.3994 36.5591 13.6646M39.2402 11.8376C39.7342 11.3676 40.156 10.9131 40.4573 10.5604M39.2402 11.8376C39.6833 11.4497 40.1068 11.0196 40.4573 10.5604M36.5591 13.6646C36.5598 13.6636 36.5604 13.6627 36.561 13.6618C36.5673 13.6521 36.5738 13.641 36.5799 13.6299L36.4707 13.5692L36.5266 13.681C36.5373 13.6756 36.5482 13.6702 36.5591 13.6646ZM40.4573 10.5604C40.5125 10.4959 40.5636 10.4347 40.6104 10.3776M40.4573 10.5604C40.511 10.4901 40.563 10.419 40.6131 10.3473M40.6104 10.3776L40.6131 10.3473M40.6104 10.3776C40.6185 10.3676 40.6265 10.3578 40.6343 10.3481L40.7314 10.4269L40.6069 10.4156L40.6104 10.3776ZM40.6131 10.3473L40.6602 9.82974L40.7847 9.84105L40.8937 9.90221C40.8091 10.053 40.715 10.2015 40.6131 10.3473ZM39.2339 12.9615C39.5548 12.7245 39.847 12.5063 40.0891 12.3237M39.2339 12.9615C39.3903 12.842 39.5389 12.7226 39.6766 12.6043C39.843 12.4615 39.9955 12.3188 40.1278 12.1784M40.0891 12.3237L40.1278 12.1784M40.0891 12.3237C40.1007 12.3149 40.1121 12.3063 40.1235 12.2977L40.1988 12.3975L40.078 12.3653L40.0891 12.3237ZM40.1278 12.1784L40.2911 11.5664L40.4118 11.5986L40.5219 11.6579C40.4321 11.8247 40.2964 11.9997 40.1278 12.1784ZM36.4672 15.9046C36.5271 15.8831 36.5829 15.8649 36.6343 15.85M36.4672 15.9046C36.5696 15.8575 36.6658 15.8151 36.7533 15.779M36.6343 15.85C36.6726 15.8277 36.7128 15.8037 36.7533 15.779M36.6343 15.85C36.6395 15.8485 36.6446 15.847 36.6497 15.8456L36.6837 15.9658L36.6211 15.8577C36.6255 15.8551 36.6299 15.8526 36.6343 15.85ZM36.7533 15.779C36.8671 15.7094 36.9832 15.6335 37.0644 15.5711C37.08 15.559 37.0944 15.5475 37.1072 15.5365C37.1339 15.5138 37.1466 15.4997 37.1505 15.4943C37.1528 15.491 37.1465 15.4984 37.1428 15.5143C37.1382 15.534 37.1376 15.5712 37.1648 15.6043C37.1874 15.6317 37.2136 15.6369 37.2164 15.6375C37.2181 15.6378 37.2191 15.6379 37.2191 15.6379C37.2191 15.6379 37.216 15.6377 37.2088 15.6381C37.1869 15.6395 37.1481 15.6457 37.0868 15.661C37.0022 15.6822 36.8881 15.7233 36.7533 15.779ZM26.5645 22.6233C27.7717 21.7712 30.3991 19.758 31.2513 18.5224C31.3223 17.5637 31.4217 15.4653 31.2513 14.741M31.6774 14.0486C31.6951 15.3445 31.7093 18.0003 31.6241 18.256M35.9913 13.2496C35.7783 13.6757 31.2513 19.5875 30.3991 20.12C29.7174 20.5461 27.6297 22.4279 26.671 23.3156L26.7827 23.3826M26.9373 23.4754C27.3634 23.1558 28.3327 22.4102 28.8014 21.9841M34.4468 15.8593C34.9791 15.0695 35.4197 14.3742 35.77 13.7965M36.2131 13.0469C36.4769 12.5875 36.6511 12.2568 36.737 12.0779C36.8257 11.1193 36.918 8.99956 36.5772 8.19002M35.3522 5.47382C36.0979 6.39697 37.5039 8.66936 37.163 10.3736M37.3313 9.56533C37.3763 9.0289 37.3343 8.30568 37.0565 7.49766M35.225 4.55044L35.1925 4.35538C35.2392 4.39543 35.2889 4.43941 35.3411 4.48703M40.6367 10.0874C40.6888 10.0059 40.7382 9.92381 40.7847 9.84105L40.7585 10.1288M40.4118 11.5986L40.314 11.9653M37.1415 15.5211C37.3058 15.4916 37.2892 15.5445 37.1925 15.628M36.6837 15.9658C35.7428 16.2321 33.1686 17.6701 30.3991 21.2917M37.6588 5.68936C37.5515 5.35317 37.4365 5.0687 37.3313 4.85214C37.5994 5.41344 37.6137 6.66249 37.5721 7.53871M36.0999 12.993C36.1599 12.8328 36.2214 12.6434 36.2778 12.4561M36.4135 11.9324C35.9638 13.0042 33.27 16.3161 31.7751 18.0784" fill="#7C7C7C" stroke="#7C7C7C" stroke-width="0.25" stroke-linejoin="round"/>
</svg>
