<svg width="360" height="62" viewBox="0 0 360 62" fill="none" xmlns="http://www.w3.org/2000/svg">
<path d="M31.0043 16.5332L45.4709 30.9999L31.0043 45.4665L16.5376 30.9999L31.0043 16.5332Z" fill="white"/>
<path d="M105.403 16.5332L119.869 30.9999L105.403 45.4665L90.936 30.9999L105.403 16.5332Z" fill="white"/>
<path d="M179.801 16.5332L194.268 30.9999L179.801 45.4665L165.334 30.9999L179.801 16.5332Z" fill="white"/>
<path d="M254.2 16.5332L268.666 30.9999L254.2 45.4665L239.733 30.9999L254.2 16.5332Z" fill="white"/>
<path d="M328.598 16.5332L343.065 30.9999L328.598 45.4665L314.131 30.9999L328.598 16.5332Z" fill="white"/>
<path d="M68.1991 20.667L78.5324 31.0003L68.1991 41.3337L57.8657 31.0003L68.1991 20.667Z" fill="white"/>
<path d="M142.597 20.667L152.931 31.0003L142.597 41.3337L132.264 31.0003L142.597 20.667Z" fill="white"/>
<path d="M217 20.667L227.333 31.0003L217 41.3337L206.667 31.0003L217 20.667Z" fill="white"/>
<path d="M291.402 20.667L301.736 31.0003L291.402 41.3337L281.069 31.0003L291.402 20.667Z" fill="white"/>
<path d="M41.3319 41.3335L51.6652 51.6668H30.9985L41.3319 41.3335Z" fill="white"/>
<path d="M115.734 41.3335L126.068 51.6668H105.401L115.734 41.3335Z" fill="white"/>
<path d="M190.137 41.3335L200.47 51.6668H179.803L190.137 41.3335Z" fill="white"/>
<path d="M264.535 41.3335L274.868 51.6668H254.202L264.535 41.3335Z" fill="white"/>
<path d="M338.933 41.3335L349.267 51.6668H328.6L338.933 41.3335Z" fill="white"/>
<path d="M20.6652 20.667L10.3319 10.3337H30.9985L20.6652 20.667Z" fill="white"/>
<path d="M95.0675 20.667L84.7342 10.3337H105.401L95.0675 20.667Z" fill="white"/>
<path d="M169.47 20.667L159.137 10.3337H179.803L169.47 20.667Z" fill="white"/>
<path d="M243.868 20.667L233.535 10.3337H254.202L243.868 20.667Z" fill="white"/>
<path d="M318.267 20.667L307.933 10.3337H328.6L318.267 20.667Z" fill="white"/>
<path d="M41.3319 20.667L51.6652 10.3337H30.9985L41.3319 20.667Z" fill="white"/>
<path d="M115.734 20.667L126.068 10.3337H105.401L115.734 20.667Z" fill="white"/>
<path d="M190.137 20.667L200.47 10.3337H179.803L190.137 20.667Z" fill="white"/>
<path d="M264.535 20.667L274.868 10.3337H254.202L264.535 20.667Z" fill="white"/>
<path d="M338.933 20.667L349.267 10.3337H328.6L338.933 20.667Z" fill="white"/>
<path d="M20.6652 41.3335L10.3319 51.6668H30.9985L20.6652 41.3335Z" fill="white"/>
<path d="M95.0675 41.3335L84.7342 51.6668H105.401L95.0675 41.3335Z" fill="white"/>
<path d="M169.47 41.3335L159.137 51.6668H179.803L169.47 41.3335Z" fill="white"/>
<path d="M243.868 41.3335L233.535 51.6668H254.202L243.868 41.3335Z" fill="white"/>
<path d="M318.267 41.3335L307.933 51.6668H328.6L318.267 41.3335Z" fill="white"/>
<path d="M30.9998 10.3335L41.3332 0.000163078H20.6665L30.9998 10.3335Z" fill="white"/>
<path d="M105.402 10.3335L115.736 0.000163078H95.0688L105.402 10.3335Z" fill="white"/>
<path d="M179.801 10.3335L190.134 0.000163078H169.467L179.801 10.3335Z" fill="white"/>
<path d="M254.199 10.3335L264.532 0.000163078H243.866L254.199 10.3335Z" fill="white"/>
<path d="M328.597 10.3335L338.931 0.000163078H318.264L328.597 10.3335Z" fill="white"/>
<path d="M31.0011 51.667L20.6678 62.0003H41.3345L31.0011 51.667Z" fill="white"/>
<path d="M105.4 51.667L95.0662 62.0003H115.733L105.4 51.667Z" fill="white"/>
<path d="M179.798 51.667L169.465 62.0003H190.131L179.798 51.667Z" fill="white"/>
<path d="M254.204 51.667L243.871 62.0003H264.538L254.204 51.667Z" fill="white"/>
<path d="M328.603 51.667L318.269 62.0003H338.936L328.603 51.667Z" fill="white"/>
<path d="M51.6678 31L62.0011 41.3333H41.3345L51.6678 31Z" fill="white"/>
<path d="M126.066 31L136.4 41.3333H115.733L126.066 31Z" fill="white"/>
<path d="M200.465 31L210.798 41.3333H190.131L200.465 31Z" fill="white"/>
<path d="M274.871 31L285.204 41.3333H264.538L274.871 31Z" fill="white"/>
<path d="M349.269 31L359.603 41.3333H338.936L349.269 31Z" fill="white"/>
<path d="M10.3332 31L-0.000162125 20.6667H20.6665L10.3332 31Z" fill="white"/>
<path d="M84.7355 31L74.4022 20.6667H95.0688L84.7355 31Z" fill="white"/>
<path d="M159.134 31L148.801 20.6667H169.467L159.134 31Z" fill="white"/>
<path d="M233.532 31L223.199 20.6667H243.866L233.532 31Z" fill="white"/>
<path d="M307.931 31L297.597 20.6667H318.264L307.931 31Z" fill="white"/>
<path d="M51.6678 31L62.0011 20.6667H41.3345L51.6678 31Z" fill="white"/>
<path d="M126.066 31L136.4 20.6667H115.733L126.066 31Z" fill="white"/>
<path d="M200.465 31L210.798 20.6667H190.131L200.465 31Z" fill="white"/>
<path d="M274.871 31L285.204 20.6667H264.538L274.871 31Z" fill="white"/>
<path d="M349.269 31L359.603 20.6667H338.936L349.269 31Z" fill="white"/>
<path d="M10.3332 31L-0.000162125 41.3333H20.6665L10.3332 31Z" fill="white"/>
<path d="M84.7355 31L74.4022 41.3333H95.0688L84.7355 31Z" fill="white"/>
<path d="M159.134 31L148.801 41.3333H169.467L159.134 31Z" fill="white"/>
<path d="M233.532 31L223.199 41.3333H243.866L233.532 31Z" fill="white"/>
<path d="M307.931 31L297.597 41.3333H318.264L307.931 31Z" fill="white"/>
</svg>
