<svg width="38" height="37" viewBox="0 0 38 37" fill="none" xmlns="http://www.w3.org/2000/svg">
<path fill-rule="evenodd" clip-rule="evenodd" d="M1.69309 31.0251C0.32626 32.392 0.32626 34.608 1.69309 35.9749C3.05993 37.3417 5.27601 37.3417 6.64284 35.9749L19.168 23.4497L31.6931 35.9749C33.0599 37.3417 35.276 37.3417 36.6428 35.9749C38.0097 34.608 38.0097 32.392 36.6428 31.0251L24.1177 18.5L36.6428 5.97487C38.0097 4.60804 38.0097 2.39196 36.6428 1.02513C35.276 -0.341709 33.0599 -0.341709 31.6931 1.02513L19.168 13.5503L6.64284 1.02513C5.27601 -0.341709 3.05993 -0.341709 1.69309 1.02513C0.32626 2.39196 0.32626 4.60804 1.69309 5.97487L14.2182 18.5L1.69309 31.0251Z" fill="white"/>
</svg>
