<svg width="38" height="35" viewBox="0 0 38 35" fill="none" xmlns="http://www.w3.org/2000/svg">
<path d="M36.2884 2.54882L32.9655 0.337023C32.5244 0.0459787 31.9838 -0.0625891 31.4614 0.0349262C30.939 0.132442 30.477 0.428155 30.1758 0.857766L13.9094 24.371L6.43239 17.0425C6.05464 16.6763 5.54477 16.4709 5.01345 16.4709C4.48214 16.4709 3.97227 16.6763 3.59451 17.0425L0.756635 19.8295C0.570021 20.0122 0.421976 20.2291 0.320968 20.4679C0.21996 20.7067 0.167969 20.9627 0.167969 21.2212C0.167969 21.4797 0.21996 21.7357 0.320968 21.9744C0.421976 22.2132 0.570021 22.4302 0.756635 22.6129L12.2507 33.8841C12.8968 34.5137 13.9075 35 14.8183 35C15.7291 35 16.6473 34.4375 17.2378 33.5956L36.8234 5.27955C37.1213 4.84769 37.2322 4.31769 37.1319 3.80577C37.0316 3.29386 36.7283 2.84183 36.2884 2.54882Z" fill="white"/>
</svg>
