<svg width="31" height="35" viewBox="0 0 31 35" fill="none" xmlns="http://www.w3.org/2000/svg">
<path d="M26.5567 7.48463C26.3205 7.36245 26.0905 7.22851 25.8676 7.08334C25.2201 6.65517 24.6263 6.15071 24.0991 5.58081C22.7786 4.07051 22.2855 2.53843 22.1051 1.46675H22.1113C21.9605 0.575501 22.0227 0 22.0336 0H16.0219V23.2425C16.0219 23.5536 16.0219 23.8631 16.0095 24.168C16.0095 24.2053 16.0048 24.2395 16.0032 24.2815C16.0032 24.2971 16.0032 24.3157 15.9986 24.3328V24.3468C15.9354 25.1806 15.6684 25.986 15.2208 26.6923C14.7733 27.3985 14.1591 27.984 13.4321 28.3971C12.6738 28.8286 11.816 29.0548 10.9435 29.0535C8.14375 29.0535 5.87285 26.7702 5.87285 23.9502C5.87285 21.1287 8.14375 18.8453 10.9435 18.8453C11.4739 18.8453 12.0012 18.9293 12.5051 19.0942L12.5129 12.9721C10.9824 12.7747 9.42758 12.8966 7.94659 13.3303C6.46559 13.764 5.09059 14.5 3.90837 15.4919C2.87224 16.3917 2.0011 17.4655 1.33417 18.6649C1.08064 19.102 0.122503 20.8612 0.00740272 23.7138C-0.0657015 25.3314 0.421142 27.0112 0.652898 27.7034V27.719C0.797551 28.1265 1.36372 29.5201 2.28452 30.6945C3.02707 31.637 3.9044 32.4651 4.88828 33.152V33.1364L4.90228 33.152C7.81089 35.1274 11.0384 34.9983 11.0384 34.9983C11.5968 34.9749 13.4679 34.9983 15.5926 33.9919C17.9491 32.8751 19.2898 31.2124 19.2898 31.2124C20.147 30.2187 20.8287 29.0862 21.3056 27.8636C21.85 26.4326 22.0304 24.7186 22.0304 24.0342V11.7013C22.1036 11.7449 23.0757 12.3873 23.0757 12.3873C23.0757 12.3873 24.4756 13.2848 26.6578 13.868C28.2225 14.2833 30.3332 14.372 30.3332 14.372V8.40388C29.5944 8.48476 28.0934 8.25145 26.5551 7.48619L26.5567 7.48463Z" fill="#55339e"/>
</svg>
