<svg width="20" height="22" viewBox="0 0 20 22" fill="none" xmlns="http://www.w3.org/2000/svg">
<path d="M1 3L3.303 17.076C3.4223 17.8053 3.74129 18.4873 4.22459 19.0463C4.7079 19.6053 5.33661 20.0195 6.041 20.243L6.369 20.347C8.73157 21.097 11.2684 21.097 13.631 20.347L13.959 20.243C14.6633 20.0196 15.2919 19.6056 15.7752 19.0467C16.2585 18.4879 16.5775 17.8061 16.697 17.077L19 3M1 3C1 4.10457 5.02944 5 10 5C14.9706 5 19 4.10457 19 3M1 3C1 1.89543 5.02944 1 10 1C14.9706 1 19 1.89543 19 3" stroke="white" stroke-width="2" stroke-linecap="round" stroke-linejoin="round"/>
</svg>
