<svg width="75" height="75" viewBox="0 0 75 75" fill="none" xmlns="http://www.w3.org/2000/svg">
<rect width="75" height="75" rx="10" fill="#888888"/>
<path d="M44.6113 42.3826C44.489 42.366 44.3644 42.3793 44.2484 42.4215C44.1323 42.4637 44.0284 42.5335 43.9455 42.6248C43.8612 42.7145 43.7993 42.8229 43.765 42.941C43.7307 43.0592 43.7249 43.1837 43.7481 43.3045C44.1805 45.5702 45.6359 48.6797 50.1041 50.6157C50.6337 50.8439 51.4515 51.022 52.4886 51.2455C56.3709 52.083 62.8632 53.4862 64.4581 59.4208C64.4849 59.52 64.5309 59.613 64.5937 59.6945C64.6565 59.7759 64.7347 59.8442 64.824 59.8955C64.9132 59.9468 65.0118 59.9801 65.1139 59.9934C65.216 60.0067 65.3198 59.9998 65.4193 59.9732C65.5188 59.9465 65.612 59.9005 65.6937 59.8379C65.7753 59.7753 65.8438 59.6973 65.8953 59.6082C65.9467 59.5192 65.98 59.421 65.9934 59.3191C66.0067 59.2172 65.9998 59.1137 65.9731 59.0145C64.1291 52.1596 56.7735 50.5704 52.8208 49.7173C51.9058 49.5188 51.1146 49.3485 50.7277 49.1798C48.0424 48.0172 46.308 46.2921 45.556 44.0452C53.0166 44.5983 56.3944 41.6341 56.5432 41.4997C56.635 41.4169 56.7057 41.3135 56.7497 41.1981C56.7937 41.0826 56.8096 40.9585 56.7961 40.8357C56.7827 40.713 56.7402 40.5952 56.6723 40.4919C56.6044 40.3887 56.5129 40.303 56.4053 40.2419C52.1001 37.7887 52.1001 29.3117 52.1001 26.1194C52.1001 17.1925 46.0715 10.1156 38.343 10.0047C38.2694 10.0022 38.1958 10.0007 38.1221 10H38.1205C30.2793 10.0438 23.8997 17.1284 23.8997 25.7944C23.8997 28.9867 23.8997 37.4652 19.5945 39.9169C19.4835 39.9812 19.3899 40.0715 19.3219 40.1801C19.2539 40.2886 19.2135 40.4121 19.2043 40.5398C19.195 40.6674 19.2171 40.7954 19.2688 40.9126C19.3204 41.0298 19.3999 41.1327 19.5005 41.2122C19.7167 41.3794 24.4951 45.0265 30.3748 43.9186C29.5884 46.0718 27.8775 47.7281 25.2706 48.8579C24.893 49.0219 24.141 49.2016 23.2699 49.4079C19.2905 50.3517 11.8817 52.1096 10.0267 59.013C10.0001 59.1122 9.99327 59.2157 10.0067 59.3175C10.0202 59.4193 10.0536 59.5175 10.1051 59.6065C10.2091 59.7861 10.3804 59.9172 10.5813 59.9708C10.7822 60.0245 10.9963 59.9964 11.1764 59.8926C11.3565 59.7889 11.4879 59.618 11.5417 59.4177C13.1538 53.4112 19.7151 51.8564 23.6334 50.9251C24.6157 50.6923 25.3912 50.5079 25.8957 50.2907C30.3639 48.3547 31.8178 45.2452 32.2517 42.9795C32.2775 42.8468 32.268 42.7096 32.2244 42.5816C32.1807 42.4536 32.1042 42.3393 32.0026 42.2498C31.9018 42.1595 31.7791 42.097 31.6467 42.0685C31.5142 42.04 31.3766 42.0465 31.2475 42.0873C27.0065 43.4186 23.0882 41.5872 21.3758 40.5716C25.4664 37.1558 25.4664 29.2946 25.4664 25.7944C25.4664 17.9863 31.1472 11.6016 38.1879 11.5594L38.354 11.5688C45.2975 11.6673 50.5334 17.9222 50.5334 26.1194C50.5334 29.6211 50.5334 37.4996 54.6413 40.9153C53.2265 41.7216 50.0007 43.0264 44.6113 42.3826Z" fill="white"/>
<path d="M35.3048 55.5853H37.0832V63.2732C37.0832 63.3732 37.1698 63.455 37.2757 63.455H38.7195C38.8254 63.455 38.912 63.3732 38.912 63.2732V55.5853H40.6952C40.8564 55.5853 40.9455 55.4103 40.8468 55.2922L38.1516 52.0698C38.1336 52.048 38.1106 52.0305 38.0843 52.0184C38.0581 52.0063 38.0292 52 38 52C37.9708 52 37.9419 52.0063 37.9157 52.0184C37.8894 52.0305 37.8664 52.048 37.8484 52.0698L35.1532 55.2899C35.0545 55.4103 35.1436 55.5853 35.3048 55.5853V55.5853ZM46.8075 62.5914H45.3636C45.2578 62.5914 45.1711 62.6733 45.1711 62.7732V66.2729H30.8289V62.7732C30.8289 62.6733 30.7422 62.5914 30.6364 62.5914H29.1925C29.0866 62.5914 29 62.6733 29 62.7732V67.2728C29 67.675 29.3441 68 29.7701 68H46.2299C46.6559 68 47 67.675 47 67.2728V62.7732C47 62.6733 46.9134 62.5914 46.8075 62.5914Z" fill="white"/>
</svg>
