<svg width="22" height="16" viewBox="0 0 22 16" fill="none" xmlns="http://www.w3.org/2000/svg">
<path d="M20 1L1 15M19.8698 6.962C20.3438 7.582 20.3438 8.419 19.8698 9.038C18.3768 10.987 14.7948 15 10.6128 15C6.4308 15 2.8488 10.987 1.3558 9.038C1.12519 8.74113 1 8.37592 1 8C1 7.62408 1.12519 7.25887 1.3558 6.962C2.8488 5.013 6.4308 1 10.6128 1C14.7948 1 18.3768 5.013 19.8698 6.962ZM13.6128 8C13.6128 9.65685 12.2697 11 10.6128 11C8.95595 11 7.6128 9.65685 7.6128 8C7.6128 6.34315 8.95595 5 10.6128 5C12.2697 5 13.6128 6.34315 13.6128 8Z" stroke="black" stroke-opacity="1" stroke-width="2" stroke-linecap="round" stroke-linejoin="round"/>
</svg>
