<svg width="35" height="35" viewBox="0 0 35 35" fill="none" xmlns="http://www.w3.org/2000/svg">
<path fill-rule="evenodd" clip-rule="evenodd" d="M17.5 35C27.165 35 35 27.165 35 17.5C35 7.83502 27.165 0 17.5 0C7.83502 0 0 7.83502 0 17.5C0 27.165 7.83502 35 17.5 35ZM14.4795 20.3689L13.2119 20.6664L13.2067 20.6646L8.99213 21.6551C8.96559 21.6614 8.93904 21.6676 8.91247 21.6739C8.50627 21.7698 8.09657 21.8666 7.67625 21.8354C7.37656 21.8144 7.08893 21.7881 6.80302 21.5886C6.64921 21.4771 6.52013 21.334 6.4241 21.1686C6.02279 20.5246 6.00385 19.5743 6.0004 18.8341C5.99179 18.0151 6.12097 17.2013 6.37932 16.4261C6.44825 16.2363 6.53779 16.0549 6.64629 15.8853C6.70259 15.8052 6.76296 15.7281 6.82713 15.6543C6.94957 15.5128 7.10156 15.4009 7.27201 15.3267C7.44245 15.2525 7.62705 15.218 7.81232 15.2255C8.16805 15.2417 8.51961 15.3101 8.85606 15.4285C8.89405 15.4421 8.93754 15.455 8.98143 15.4681C9.01118 15.4769 9.04111 15.4858 9.06963 15.495C9.39285 15.5979 9.76243 15.7323 10.1873 15.8867C10.2537 15.9108 10.3215 15.9355 10.3907 15.9605C11.1765 16.2405 11.9596 16.5281 12.74 16.8233L14.1316 17.3396C14.3866 17.4337 14.6332 17.5496 14.8688 17.6861C15.0683 17.801 15.2438 17.9544 15.3855 18.1376C15.5159 18.3247 15.5998 18.5412 15.6302 18.7684C15.6605 18.9957 15.6363 19.227 15.5597 19.4427C15.4831 19.6584 15.3563 19.8521 15.1901 20.0072C15.0239 20.1624 14.8233 20.2745 14.6053 20.3339C14.5639 20.3475 14.522 20.3591 14.4795 20.3689ZM25.99 11.827C26.5558 12.4091 27.0215 13.0835 27.3679 13.822C27.6814 14.4888 28.0741 15.3515 27.9879 16.111C27.9728 16.303 27.9183 16.4896 27.8278 16.6588C27.6572 16.9651 27.4092 17.1173 27.1492 17.2713C26.7818 17.486 26.3699 17.5823 25.9613 17.6778C25.937 17.6834 25.9127 17.6891 25.8884 17.6948L20.4027 18.9828C20.3606 18.9931 20.3181 19.0013 20.2753 19.0073C19.9194 19.077 19.5508 19.0035 19.2471 18.8024C18.9435 18.6013 18.7286 18.2883 18.6476 17.9293C18.6471 17.9272 18.6464 17.9251 18.6458 17.923C18.6441 17.9179 18.6425 17.9127 18.6425 17.9066C18.6062 17.7333 18.6021 17.5546 18.6304 17.3798C18.6778 17.1513 18.7697 16.9347 18.9008 16.7428C19.0539 16.5156 19.2256 16.3019 19.4141 16.104L20.444 15.019C21.0176 14.4048 21.598 13.7993 22.1836 13.1955C22.2617 13.1148 22.3372 13.0363 22.4104 12.9602C22.6943 12.6653 22.9436 12.4063 23.1722 12.1892C23.1842 12.1779 23.1964 12.1663 23.2088 12.1546C23.2519 12.1138 23.2967 12.0716 23.3341 12.0335C23.6821 11.7045 23.9439 11.5085 24.1884 11.386C24.3515 11.2967 24.5322 11.2455 24.7172 11.2361C24.9022 11.2267 25.087 11.2594 25.258 11.3317C25.3463 11.3697 25.4325 11.4123 25.5164 11.4595C25.6868 11.5643 25.8457 11.6875 25.99 11.827ZM17.9704 14.4574C17.9416 15.0385 17.9085 15.7044 17.5488 16.1653V16.1635C17.52 16.1972 17.4895 16.2294 17.4575 16.2598C17.2811 16.45 17.0564 16.5869 16.8082 16.6553L16.7599 16.6676C16.4912 16.7306 16.2105 16.7113 15.9522 16.6116C15.9125 16.5993 15.8729 16.5853 15.835 16.5678C15.3126 16.3143 14.9978 15.7323 14.723 15.2244C14.6943 15.1713 14.666 15.119 14.638 15.068C14.4779 14.778 14.3178 14.4879 14.1577 14.1979C13.3217 12.6839 12.4857 11.1698 11.6618 9.64821C11.5624 9.46363 11.4603 9.28132 11.3583 9.09925C11.0803 8.60291 10.8033 8.10834 10.5853 7.57443C10.5649 7.5246 10.544 7.47425 10.523 7.42346C10.2896 6.86069 10.0332 6.2423 10.1564 5.63716C10.3924 4.46989 11.7927 3.86263 12.7916 3.53013C13.1001 3.43149 13.4121 3.34451 13.7269 3.26938C14.0421 3.19237 14.3607 3.13112 14.6793 3.08737C15.7196 2.94212 17.2422 2.86512 17.9535 3.80663C18.3241 4.29537 18.3597 4.96312 18.3922 5.57207C18.3952 5.62816 18.3981 5.68375 18.4013 5.73866C18.4344 6.32023 18.398 6.89416 18.3614 7.47033C18.3484 7.67436 18.3355 7.87866 18.3256 8.08369C18.2423 9.8059 18.1411 11.5281 18.0399 13.2503C18.0197 13.5949 17.9995 13.9395 17.9794 14.284C17.9762 14.3408 17.9733 14.3987 17.9704 14.4574ZM16.3524 21.1965C16.6434 21.2715 16.8989 21.4488 17.0734 21.6971H17.0717C17.1631 21.8428 17.2311 22.0023 17.2732 22.1696C17.3584 22.5262 17.3903 22.8937 17.3679 23.2599L17.3111 24.7824C17.2835 25.6382 17.2508 26.4957 17.2077 27.3532C17.2028 27.4609 17.1981 27.5655 17.1936 27.6671C17.1746 28.0919 17.158 28.4637 17.1302 28.79L17.1096 29.0175C17.0665 29.504 16.9993 29.833 16.8977 30.0902C16.8347 30.2652 16.7347 30.4241 16.6049 30.5557C16.4685 30.6924 16.3054 30.7985 16.1261 30.8672C16.0341 30.9004 15.9404 30.9284 15.8454 30.9512C15.6473 30.9894 15.4457 31.0052 15.2443 30.9985C13.8903 30.9007 12.5857 30.442 11.462 29.6685C11.2995 29.5477 11.151 29.4085 11.0193 29.2537C10.9573 29.175 10.9005 29.0945 10.8471 29.0122C10.7472 28.846 10.6835 28.6587 10.6611 28.4662C10.6387 28.2814 10.6563 28.0939 10.7128 27.9167C10.7885 27.6489 10.9367 27.3497 11.1985 26.9384L11.3225 26.7459C11.4876 26.4877 11.6875 26.2041 11.914 25.8829C11.9853 25.7818 12.0592 25.6771 12.1354 25.5682C12.6246 24.8647 13.1189 24.1717 13.6184 23.4804L14.5002 22.2466C14.5337 22.216 14.5629 22.1727 14.5915 22.1304C14.607 22.1075 14.6223 22.0849 14.638 22.0646C14.8093 21.8327 15.0097 21.6245 15.2339 21.4451C15.3125 21.3853 15.3961 21.3326 15.4837 21.2876C15.7535 21.1538 16.0613 21.1215 16.3524 21.1965ZM26.176 23.4191C26.4915 23.597 26.7803 23.8198 27.0338 24.0807C27.1613 24.2151 27.2584 24.3764 27.3179 24.5532C27.379 24.7371 27.4013 24.9321 27.3834 25.1254C27.3713 25.2252 27.3558 25.3214 27.3334 25.4194C27.3091 25.5149 27.2798 25.6089 27.2456 25.7012C27.2094 25.7992 27.1664 25.8972 27.1147 25.9899C26.7513 26.6479 26.2845 27.2254 25.7575 27.7505C25.3173 28.188 24.8222 28.5646 24.2849 28.8705C24.1071 28.9665 23.9193 29.0422 23.7251 29.0962C23.6297 29.1185 23.5331 29.1355 23.4358 29.147C23.2497 29.1698 23.0609 29.15 22.8833 29.0892C22.7057 29.0283 22.5437 28.9279 22.4092 28.7952C22.206 28.608 22.0062 28.3437 21.7565 27.9255C21.7243 27.8683 21.6847 27.8035 21.6473 27.7425L21.6394 27.7294C21.4688 27.4372 21.2861 27.0944 21.077 26.7021C21.037 26.627 20.996 26.55 20.9539 26.4712C20.5457 25.7187 20.1478 24.9662 19.7551 24.2067L19.0489 22.8626C18.887 22.5529 18.7286 22.1994 18.6631 21.8424C18.6312 21.6734 18.6254 21.5004 18.6459 21.3296C18.6955 21.0291 18.848 20.7561 19.0765 20.5589C19.305 20.3616 19.5948 20.2528 19.8946 20.2516C19.9929 20.2535 20.0909 20.2641 20.1874 20.2831C20.4662 20.3441 20.736 20.4418 20.99 20.5736C21.0116 20.5846 21.0335 20.5972 21.0557 20.61C21.1009 20.6361 21.1471 20.6628 21.1933 20.6769L22.5143 21.3891C23.2635 21.7899 24.0041 22.1924 24.7448 22.6054C24.831 22.6528 24.9149 22.6987 24.9965 22.7434C25.3732 22.9496 25.7014 23.1293 25.9831 23.3019L26.176 23.4191Z" fill="#55339e"/>
</svg>
